<mxfile host="app.diagrams.net" modified="2022-06-25T00:56:18.042Z" agent="5.0 (Macintosh; Intel Mac OS X 10_15_7) AppleWebKit/537.36 (KHTML, like Gecko) Chrome/103.0.0.0 Safari/537.36" etag="dr9-5uGEnhIRMeoVgzD6" version="20.0.3" type="github">
  <diagram id="B6zozj2AaY3UkD2IrTkV" name="Page-1">
    <mxGraphModel dx="2463" dy="2074" grid="1" gridSize="10" guides="1" tooltips="1" connect="1" arrows="1" fold="1" page="1" pageScale="1" pageWidth="827" pageHeight="1169" math="0" shadow="0">
      <root>
        <mxCell id="WIyWlLk6GJQsqaUBKTNV-0" />
        <mxCell id="WIyWlLk6GJQsqaUBKTNV-1" parent="WIyWlLk6GJQsqaUBKTNV-0" />
        <mxCell id="iAbm7mLu2YSf8Fx5eU8r-4" value="users" style="shape=table;startSize=30;container=1;collapsible=0;childLayout=tableLayout;fixedRows=1;rowLines=0;fontStyle=1;align=center;pointerEvents=1;fillColor=#d5e8d4;strokeColor=#82b366;" parent="WIyWlLk6GJQsqaUBKTNV-1" vertex="1">
          <mxGeometry x="-680" y="-50" width="240" height="150" as="geometry" />
        </mxCell>
        <mxCell id="iAbm7mLu2YSf8Fx5eU8r-5" value="" style="shape=partialRectangle;html=1;whiteSpace=wrap;collapsible=0;dropTarget=0;pointerEvents=1;fillColor=none;top=0;left=0;bottom=1;right=0;points=[[0,0.5],[1,0.5]];portConstraint=eastwest;" parent="iAbm7mLu2YSf8Fx5eU8r-4" vertex="1">
          <mxGeometry y="30" width="240" height="30" as="geometry" />
        </mxCell>
        <mxCell id="iAbm7mLu2YSf8Fx5eU8r-6" value="PK" style="shape=partialRectangle;html=1;whiteSpace=wrap;connectable=0;fillColor=none;top=0;left=0;bottom=0;right=0;overflow=hidden;pointerEvents=1;" parent="iAbm7mLu2YSf8Fx5eU8r-5" vertex="1">
          <mxGeometry width="55" height="30" as="geometry">
            <mxRectangle width="55" height="30" as="alternateBounds" />
          </mxGeometry>
        </mxCell>
        <mxCell id="iAbm7mLu2YSf8Fx5eU8r-7" value="id" style="shape=partialRectangle;html=1;whiteSpace=wrap;connectable=0;fillColor=none;top=0;left=0;bottom=0;right=0;align=left;spacingLeft=6;overflow=hidden;pointerEvents=1;" parent="iAbm7mLu2YSf8Fx5eU8r-5" vertex="1">
          <mxGeometry x="55" width="185" height="30" as="geometry">
            <mxRectangle width="185" height="30" as="alternateBounds" />
          </mxGeometry>
        </mxCell>
        <mxCell id="iAbm7mLu2YSf8Fx5eU8r-8" value="" style="shape=partialRectangle;html=1;whiteSpace=wrap;collapsible=0;dropTarget=0;pointerEvents=1;fillColor=none;top=0;left=0;bottom=0;right=0;points=[[0,0.5],[1,0.5]];portConstraint=eastwest;" parent="iAbm7mLu2YSf8Fx5eU8r-4" vertex="1">
          <mxGeometry y="60" width="240" height="30" as="geometry" />
        </mxCell>
        <mxCell id="iAbm7mLu2YSf8Fx5eU8r-9" value="" style="shape=partialRectangle;html=1;whiteSpace=wrap;connectable=0;fillColor=none;top=0;left=0;bottom=0;right=0;overflow=hidden;pointerEvents=1;" parent="iAbm7mLu2YSf8Fx5eU8r-8" vertex="1">
          <mxGeometry width="55" height="30" as="geometry">
            <mxRectangle width="55" height="30" as="alternateBounds" />
          </mxGeometry>
        </mxCell>
        <mxCell id="iAbm7mLu2YSf8Fx5eU8r-10" value="name" style="shape=partialRectangle;html=1;whiteSpace=wrap;connectable=0;fillColor=none;top=0;left=0;bottom=0;right=0;align=left;spacingLeft=6;overflow=hidden;pointerEvents=1;" parent="iAbm7mLu2YSf8Fx5eU8r-8" vertex="1">
          <mxGeometry x="55" width="185" height="30" as="geometry">
            <mxRectangle width="185" height="30" as="alternateBounds" />
          </mxGeometry>
        </mxCell>
        <mxCell id="iAbm7mLu2YSf8Fx5eU8r-43" style="shape=partialRectangle;html=1;whiteSpace=wrap;collapsible=0;dropTarget=0;pointerEvents=1;fillColor=none;top=0;left=0;bottom=0;right=0;points=[[0,0.5],[1,0.5]];portConstraint=eastwest;" parent="iAbm7mLu2YSf8Fx5eU8r-4" vertex="1">
          <mxGeometry y="90" width="240" height="30" as="geometry" />
        </mxCell>
        <mxCell id="iAbm7mLu2YSf8Fx5eU8r-44" style="shape=partialRectangle;html=1;whiteSpace=wrap;connectable=0;fillColor=none;top=0;left=0;bottom=0;right=0;overflow=hidden;pointerEvents=1;" parent="iAbm7mLu2YSf8Fx5eU8r-43" vertex="1">
          <mxGeometry width="55" height="30" as="geometry">
            <mxRectangle width="55" height="30" as="alternateBounds" />
          </mxGeometry>
        </mxCell>
        <mxCell id="iAbm7mLu2YSf8Fx5eU8r-45" value="best_bottle" style="shape=partialRectangle;html=1;whiteSpace=wrap;connectable=0;fillColor=none;top=0;left=0;bottom=0;right=0;align=left;spacingLeft=6;overflow=hidden;pointerEvents=1;" parent="iAbm7mLu2YSf8Fx5eU8r-43" vertex="1">
          <mxGeometry x="55" width="185" height="30" as="geometry">
            <mxRectangle width="185" height="30" as="alternateBounds" />
          </mxGeometry>
        </mxCell>
        <mxCell id="iAbm7mLu2YSf8Fx5eU8r-11" value="" style="shape=partialRectangle;html=1;whiteSpace=wrap;collapsible=0;dropTarget=0;pointerEvents=1;fillColor=none;top=0;left=0;bottom=0;right=0;points=[[0,0.5],[1,0.5]];portConstraint=eastwest;" parent="iAbm7mLu2YSf8Fx5eU8r-4" vertex="1">
          <mxGeometry y="120" width="240" height="30" as="geometry" />
        </mxCell>
        <mxCell id="iAbm7mLu2YSf8Fx5eU8r-12" value="" style="shape=partialRectangle;html=1;whiteSpace=wrap;connectable=0;fillColor=none;top=0;left=0;bottom=0;right=0;overflow=hidden;pointerEvents=1;" parent="iAbm7mLu2YSf8Fx5eU8r-11" vertex="1">
          <mxGeometry width="55" height="30" as="geometry">
            <mxRectangle width="55" height="30" as="alternateBounds" />
          </mxGeometry>
        </mxCell>
        <mxCell id="iAbm7mLu2YSf8Fx5eU8r-13" value="avatar" style="shape=partialRectangle;html=1;whiteSpace=wrap;connectable=0;fillColor=none;top=0;left=0;bottom=0;right=0;align=left;spacingLeft=6;overflow=hidden;pointerEvents=1;" parent="iAbm7mLu2YSf8Fx5eU8r-11" vertex="1">
          <mxGeometry x="55" width="185" height="30" as="geometry">
            <mxRectangle width="185" height="30" as="alternateBounds" />
          </mxGeometry>
        </mxCell>
        <mxCell id="iAbm7mLu2YSf8Fx5eU8r-76" value="flavors" style="shape=table;startSize=30;container=1;collapsible=0;childLayout=tableLayout;fixedRows=1;rowLines=0;fontStyle=1;align=center;pointerEvents=1;fillColor=#d5e8d4;strokeColor=#82b366;" parent="WIyWlLk6GJQsqaUBKTNV-1" vertex="1">
          <mxGeometry x="310" y="480" width="180" height="180" as="geometry" />
        </mxCell>
        <mxCell id="iAbm7mLu2YSf8Fx5eU8r-77" value="" style="shape=partialRectangle;html=1;whiteSpace=wrap;collapsible=0;dropTarget=0;pointerEvents=1;fillColor=none;top=0;left=0;bottom=1;right=0;points=[[0,0.5],[1,0.5]];portConstraint=eastwest;" parent="iAbm7mLu2YSf8Fx5eU8r-76" vertex="1">
          <mxGeometry y="30" width="180" height="30" as="geometry" />
        </mxCell>
        <mxCell id="iAbm7mLu2YSf8Fx5eU8r-78" value="PK" style="shape=partialRectangle;html=1;whiteSpace=wrap;connectable=0;fillColor=none;top=0;left=0;bottom=0;right=0;overflow=hidden;pointerEvents=1;" parent="iAbm7mLu2YSf8Fx5eU8r-77" vertex="1">
          <mxGeometry width="40" height="30" as="geometry">
            <mxRectangle width="40" height="30" as="alternateBounds" />
          </mxGeometry>
        </mxCell>
        <mxCell id="iAbm7mLu2YSf8Fx5eU8r-79" value="id" style="shape=partialRectangle;html=1;whiteSpace=wrap;connectable=0;fillColor=none;top=0;left=0;bottom=0;right=0;align=left;spacingLeft=6;overflow=hidden;pointerEvents=1;" parent="iAbm7mLu2YSf8Fx5eU8r-77" vertex="1">
          <mxGeometry x="40" width="140" height="30" as="geometry">
            <mxRectangle width="140" height="30" as="alternateBounds" />
          </mxGeometry>
        </mxCell>
        <mxCell id="iAbm7mLu2YSf8Fx5eU8r-80" value="" style="shape=partialRectangle;html=1;whiteSpace=wrap;collapsible=0;dropTarget=0;pointerEvents=1;fillColor=none;top=0;left=0;bottom=0;right=0;points=[[0,0.5],[1,0.5]];portConstraint=eastwest;" parent="iAbm7mLu2YSf8Fx5eU8r-76" vertex="1">
          <mxGeometry y="60" width="180" height="30" as="geometry" />
        </mxCell>
        <mxCell id="iAbm7mLu2YSf8Fx5eU8r-81" value="" style="shape=partialRectangle;html=1;whiteSpace=wrap;connectable=0;fillColor=none;top=0;left=0;bottom=0;right=0;overflow=hidden;pointerEvents=1;" parent="iAbm7mLu2YSf8Fx5eU8r-80" vertex="1">
          <mxGeometry width="40" height="30" as="geometry">
            <mxRectangle width="40" height="30" as="alternateBounds" />
          </mxGeometry>
        </mxCell>
        <mxCell id="iAbm7mLu2YSf8Fx5eU8r-82" value="name" style="shape=partialRectangle;html=1;whiteSpace=wrap;connectable=0;fillColor=none;top=0;left=0;bottom=0;right=0;align=left;spacingLeft=6;overflow=hidden;pointerEvents=1;" parent="iAbm7mLu2YSf8Fx5eU8r-80" vertex="1">
          <mxGeometry x="40" width="140" height="30" as="geometry">
            <mxRectangle width="140" height="30" as="alternateBounds" />
          </mxGeometry>
        </mxCell>
        <mxCell id="iAbm7mLu2YSf8Fx5eU8r-83" value="" style="shape=partialRectangle;html=1;whiteSpace=wrap;collapsible=0;dropTarget=0;pointerEvents=1;fillColor=none;top=0;left=0;bottom=0;right=0;points=[[0,0.5],[1,0.5]];portConstraint=eastwest;" parent="iAbm7mLu2YSf8Fx5eU8r-76" vertex="1">
          <mxGeometry y="90" width="180" height="30" as="geometry" />
        </mxCell>
        <mxCell id="iAbm7mLu2YSf8Fx5eU8r-84" value="" style="shape=partialRectangle;html=1;whiteSpace=wrap;connectable=0;fillColor=none;top=0;left=0;bottom=0;right=0;overflow=hidden;pointerEvents=1;" parent="iAbm7mLu2YSf8Fx5eU8r-83" vertex="1">
          <mxGeometry width="40" height="30" as="geometry">
            <mxRectangle width="40" height="30" as="alternateBounds" />
          </mxGeometry>
        </mxCell>
        <mxCell id="iAbm7mLu2YSf8Fx5eU8r-85" value="description" style="shape=partialRectangle;html=1;whiteSpace=wrap;connectable=0;fillColor=none;top=0;left=0;bottom=0;right=0;align=left;spacingLeft=6;overflow=hidden;pointerEvents=1;" parent="iAbm7mLu2YSf8Fx5eU8r-83" vertex="1">
          <mxGeometry x="40" width="140" height="30" as="geometry">
            <mxRectangle width="140" height="30" as="alternateBounds" />
          </mxGeometry>
        </mxCell>
        <mxCell id="iAbm7mLu2YSf8Fx5eU8r-302" style="shape=partialRectangle;html=1;whiteSpace=wrap;collapsible=0;dropTarget=0;pointerEvents=1;fillColor=none;top=0;left=0;bottom=0;right=0;points=[[0,0.5],[1,0.5]];portConstraint=eastwest;" parent="iAbm7mLu2YSf8Fx5eU8r-76" vertex="1">
          <mxGeometry y="120" width="180" height="30" as="geometry" />
        </mxCell>
        <mxCell id="iAbm7mLu2YSf8Fx5eU8r-303" style="shape=partialRectangle;html=1;whiteSpace=wrap;connectable=0;fillColor=none;top=0;left=0;bottom=0;right=0;overflow=hidden;pointerEvents=1;" parent="iAbm7mLu2YSf8Fx5eU8r-302" vertex="1">
          <mxGeometry width="40" height="30" as="geometry">
            <mxRectangle width="40" height="30" as="alternateBounds" />
          </mxGeometry>
        </mxCell>
        <mxCell id="iAbm7mLu2YSf8Fx5eU8r-304" value="image" style="shape=partialRectangle;html=1;whiteSpace=wrap;connectable=0;fillColor=none;top=0;left=0;bottom=0;right=0;align=left;spacingLeft=6;overflow=hidden;pointerEvents=1;" parent="iAbm7mLu2YSf8Fx5eU8r-302" vertex="1">
          <mxGeometry x="40" width="140" height="30" as="geometry">
            <mxRectangle width="140" height="30" as="alternateBounds" />
          </mxGeometry>
        </mxCell>
        <mxCell id="iAbm7mLu2YSf8Fx5eU8r-86" style="shape=partialRectangle;html=1;whiteSpace=wrap;collapsible=0;dropTarget=0;pointerEvents=1;fillColor=none;top=0;left=0;bottom=0;right=0;points=[[0,0.5],[1,0.5]];portConstraint=eastwest;" parent="iAbm7mLu2YSf8Fx5eU8r-76" vertex="1">
          <mxGeometry y="150" width="180" height="30" as="geometry" />
        </mxCell>
        <mxCell id="iAbm7mLu2YSf8Fx5eU8r-87" value="FK" style="shape=partialRectangle;html=1;whiteSpace=wrap;connectable=0;fillColor=none;top=0;left=0;bottom=0;right=0;overflow=hidden;pointerEvents=1;" parent="iAbm7mLu2YSf8Fx5eU8r-86" vertex="1">
          <mxGeometry width="40" height="30" as="geometry">
            <mxRectangle width="40" height="30" as="alternateBounds" />
          </mxGeometry>
        </mxCell>
        <mxCell id="iAbm7mLu2YSf8Fx5eU8r-88" value="flavor_group_id" style="shape=partialRectangle;html=1;whiteSpace=wrap;connectable=0;fillColor=none;top=0;left=0;bottom=0;right=0;align=left;spacingLeft=6;overflow=hidden;pointerEvents=1;" parent="iAbm7mLu2YSf8Fx5eU8r-86" vertex="1">
          <mxGeometry x="40" width="140" height="30" as="geometry">
            <mxRectangle width="140" height="30" as="alternateBounds" />
          </mxGeometry>
        </mxCell>
        <mxCell id="iAbm7mLu2YSf8Fx5eU8r-104" value="whiskeys" style="shape=table;startSize=30;container=1;collapsible=0;childLayout=tableLayout;fixedRows=1;rowLines=0;fontStyle=1;align=center;pointerEvents=1;fillColor=#d5e8d4;strokeColor=#82b366;" parent="WIyWlLk6GJQsqaUBKTNV-1" vertex="1">
          <mxGeometry x="-130" y="-50" width="240" height="480" as="geometry" />
        </mxCell>
        <mxCell id="iAbm7mLu2YSf8Fx5eU8r-105" value="" style="shape=partialRectangle;html=1;whiteSpace=wrap;collapsible=0;dropTarget=0;pointerEvents=1;fillColor=none;top=0;left=0;bottom=1;right=0;points=[[0,0.5],[1,0.5]];portConstraint=eastwest;" parent="iAbm7mLu2YSf8Fx5eU8r-104" vertex="1">
          <mxGeometry y="30" width="240" height="30" as="geometry" />
        </mxCell>
        <mxCell id="iAbm7mLu2YSf8Fx5eU8r-106" value="PK" style="shape=partialRectangle;html=1;whiteSpace=wrap;connectable=0;fillColor=none;top=0;left=0;bottom=0;right=0;overflow=hidden;pointerEvents=1;" parent="iAbm7mLu2YSf8Fx5eU8r-105" vertex="1">
          <mxGeometry width="53" height="30" as="geometry">
            <mxRectangle width="53" height="30" as="alternateBounds" />
          </mxGeometry>
        </mxCell>
        <mxCell id="iAbm7mLu2YSf8Fx5eU8r-107" value="id" style="shape=partialRectangle;html=1;whiteSpace=wrap;connectable=0;fillColor=none;top=0;left=0;bottom=0;right=0;align=left;spacingLeft=6;overflow=hidden;pointerEvents=1;" parent="iAbm7mLu2YSf8Fx5eU8r-105" vertex="1">
          <mxGeometry x="53" width="187" height="30" as="geometry">
            <mxRectangle width="187" height="30" as="alternateBounds" />
          </mxGeometry>
        </mxCell>
        <mxCell id="iAbm7mLu2YSf8Fx5eU8r-108" value="" style="shape=partialRectangle;html=1;whiteSpace=wrap;collapsible=0;dropTarget=0;pointerEvents=1;fillColor=none;top=0;left=0;bottom=0;right=0;points=[[0,0.5],[1,0.5]];portConstraint=eastwest;" parent="iAbm7mLu2YSf8Fx5eU8r-104" vertex="1">
          <mxGeometry y="60" width="240" height="30" as="geometry" />
        </mxCell>
        <mxCell id="iAbm7mLu2YSf8Fx5eU8r-109" value="" style="shape=partialRectangle;html=1;whiteSpace=wrap;connectable=0;fillColor=none;top=0;left=0;bottom=0;right=0;overflow=hidden;pointerEvents=1;" parent="iAbm7mLu2YSf8Fx5eU8r-108" vertex="1">
          <mxGeometry width="53" height="30" as="geometry">
            <mxRectangle width="53" height="30" as="alternateBounds" />
          </mxGeometry>
        </mxCell>
        <mxCell id="iAbm7mLu2YSf8Fx5eU8r-110" value="name" style="shape=partialRectangle;html=1;whiteSpace=wrap;connectable=0;fillColor=none;top=0;left=0;bottom=0;right=0;align=left;spacingLeft=6;overflow=hidden;pointerEvents=1;" parent="iAbm7mLu2YSf8Fx5eU8r-108" vertex="1">
          <mxGeometry x="53" width="187" height="30" as="geometry">
            <mxRectangle width="187" height="30" as="alternateBounds" />
          </mxGeometry>
        </mxCell>
        <mxCell id="iAbm7mLu2YSf8Fx5eU8r-111" value="" style="shape=partialRectangle;html=1;whiteSpace=wrap;collapsible=0;dropTarget=0;pointerEvents=1;fillColor=none;top=0;left=0;bottom=0;right=0;points=[[0,0.5],[1,0.5]];portConstraint=eastwest;" parent="iAbm7mLu2YSf8Fx5eU8r-104" vertex="1">
          <mxGeometry y="90" width="240" height="30" as="geometry" />
        </mxCell>
        <mxCell id="iAbm7mLu2YSf8Fx5eU8r-112" value="" style="shape=partialRectangle;html=1;whiteSpace=wrap;connectable=0;fillColor=none;top=0;left=0;bottom=0;right=0;overflow=hidden;pointerEvents=1;" parent="iAbm7mLu2YSf8Fx5eU8r-111" vertex="1">
          <mxGeometry width="53" height="30" as="geometry">
            <mxRectangle width="53" height="30" as="alternateBounds" />
          </mxGeometry>
        </mxCell>
        <mxCell id="iAbm7mLu2YSf8Fx5eU8r-113" value="description" style="shape=partialRectangle;html=1;whiteSpace=wrap;connectable=0;fillColor=none;top=0;left=0;bottom=0;right=0;align=left;spacingLeft=6;overflow=hidden;pointerEvents=1;" parent="iAbm7mLu2YSf8Fx5eU8r-111" vertex="1">
          <mxGeometry x="53" width="187" height="30" as="geometry">
            <mxRectangle width="187" height="30" as="alternateBounds" />
          </mxGeometry>
        </mxCell>
        <mxCell id="iAbm7mLu2YSf8Fx5eU8r-114" style="shape=partialRectangle;html=1;whiteSpace=wrap;collapsible=0;dropTarget=0;pointerEvents=1;fillColor=none;top=0;left=0;bottom=0;right=0;points=[[0,0.5],[1,0.5]];portConstraint=eastwest;" parent="iAbm7mLu2YSf8Fx5eU8r-104" vertex="1">
          <mxGeometry y="120" width="240" height="30" as="geometry" />
        </mxCell>
        <mxCell id="iAbm7mLu2YSf8Fx5eU8r-115" style="shape=partialRectangle;html=1;whiteSpace=wrap;connectable=0;fillColor=none;top=0;left=0;bottom=0;right=0;overflow=hidden;pointerEvents=1;" parent="iAbm7mLu2YSf8Fx5eU8r-114" vertex="1">
          <mxGeometry width="53" height="30" as="geometry">
            <mxRectangle width="53" height="30" as="alternateBounds" />
          </mxGeometry>
        </mxCell>
        <mxCell id="iAbm7mLu2YSf8Fx5eU8r-116" value="mouth_feel(enum)" style="shape=partialRectangle;html=1;whiteSpace=wrap;connectable=0;fillColor=none;top=0;left=0;bottom=0;right=0;align=left;spacingLeft=6;overflow=hidden;pointerEvents=1;" parent="iAbm7mLu2YSf8Fx5eU8r-114" vertex="1">
          <mxGeometry x="53" width="187" height="30" as="geometry">
            <mxRectangle width="187" height="30" as="alternateBounds" />
          </mxGeometry>
        </mxCell>
        <mxCell id="iAbm7mLu2YSf8Fx5eU8r-117" style="shape=partialRectangle;html=1;whiteSpace=wrap;collapsible=0;dropTarget=0;pointerEvents=1;fillColor=none;top=0;left=0;bottom=0;right=0;points=[[0,0.5],[1,0.5]];portConstraint=eastwest;" parent="iAbm7mLu2YSf8Fx5eU8r-104" vertex="1">
          <mxGeometry y="150" width="240" height="30" as="geometry" />
        </mxCell>
        <mxCell id="iAbm7mLu2YSf8Fx5eU8r-118" style="shape=partialRectangle;html=1;whiteSpace=wrap;connectable=0;fillColor=none;top=0;left=0;bottom=0;right=0;overflow=hidden;pointerEvents=1;" parent="iAbm7mLu2YSf8Fx5eU8r-117" vertex="1">
          <mxGeometry width="53" height="30" as="geometry">
            <mxRectangle width="53" height="30" as="alternateBounds" />
          </mxGeometry>
        </mxCell>
        <mxCell id="iAbm7mLu2YSf8Fx5eU8r-119" value="flavor_strength(enum)" style="shape=partialRectangle;html=1;whiteSpace=wrap;connectable=0;fillColor=none;top=0;left=0;bottom=0;right=0;align=left;spacingLeft=6;overflow=hidden;pointerEvents=1;" parent="iAbm7mLu2YSf8Fx5eU8r-117" vertex="1">
          <mxGeometry x="53" width="187" height="30" as="geometry">
            <mxRectangle width="187" height="30" as="alternateBounds" />
          </mxGeometry>
        </mxCell>
        <mxCell id="iAbm7mLu2YSf8Fx5eU8r-120" style="shape=partialRectangle;html=1;whiteSpace=wrap;collapsible=0;dropTarget=0;pointerEvents=1;fillColor=none;top=0;left=0;bottom=0;right=0;points=[[0,0.5],[1,0.5]];portConstraint=eastwest;" parent="iAbm7mLu2YSf8Fx5eU8r-104" vertex="1">
          <mxGeometry y="180" width="240" height="30" as="geometry" />
        </mxCell>
        <mxCell id="iAbm7mLu2YSf8Fx5eU8r-121" style="shape=partialRectangle;html=1;whiteSpace=wrap;connectable=0;fillColor=none;top=0;left=0;bottom=0;right=0;overflow=hidden;pointerEvents=1;" parent="iAbm7mLu2YSf8Fx5eU8r-120" vertex="1">
          <mxGeometry width="53" height="30" as="geometry">
            <mxRectangle width="53" height="30" as="alternateBounds" />
          </mxGeometry>
        </mxCell>
        <mxCell id="iAbm7mLu2YSf8Fx5eU8r-122" value="rarity(enum)" style="shape=partialRectangle;html=1;whiteSpace=wrap;connectable=0;fillColor=none;top=0;left=0;bottom=0;right=0;align=left;spacingLeft=6;overflow=hidden;pointerEvents=1;" parent="iAbm7mLu2YSf8Fx5eU8r-120" vertex="1">
          <mxGeometry x="53" width="187" height="30" as="geometry">
            <mxRectangle width="187" height="30" as="alternateBounds" />
          </mxGeometry>
        </mxCell>
        <mxCell id="iAbm7mLu2YSf8Fx5eU8r-123" style="shape=partialRectangle;html=1;whiteSpace=wrap;collapsible=0;dropTarget=0;pointerEvents=1;fillColor=none;top=0;left=0;bottom=0;right=0;points=[[0,0.5],[1,0.5]];portConstraint=eastwest;" parent="iAbm7mLu2YSf8Fx5eU8r-104" vertex="1">
          <mxGeometry y="210" width="240" height="30" as="geometry" />
        </mxCell>
        <mxCell id="iAbm7mLu2YSf8Fx5eU8r-124" style="shape=partialRectangle;html=1;whiteSpace=wrap;connectable=0;fillColor=none;top=0;left=0;bottom=0;right=0;overflow=hidden;pointerEvents=1;" parent="iAbm7mLu2YSf8Fx5eU8r-123" vertex="1">
          <mxGeometry width="53" height="30" as="geometry">
            <mxRectangle width="53" height="30" as="alternateBounds" />
          </mxGeometry>
        </mxCell>
        <mxCell id="iAbm7mLu2YSf8Fx5eU8r-125" value="price" style="shape=partialRectangle;html=1;whiteSpace=wrap;connectable=0;fillColor=none;top=0;left=0;bottom=0;right=0;align=left;spacingLeft=6;overflow=hidden;pointerEvents=1;" parent="iAbm7mLu2YSf8Fx5eU8r-123" vertex="1">
          <mxGeometry x="53" width="187" height="30" as="geometry">
            <mxRectangle width="187" height="30" as="alternateBounds" />
          </mxGeometry>
        </mxCell>
        <mxCell id="HZYmMuGVgNWtQE-nrAp_-14" style="shape=partialRectangle;html=1;whiteSpace=wrap;collapsible=0;dropTarget=0;pointerEvents=1;fillColor=none;top=0;left=0;bottom=0;right=0;points=[[0,0.5],[1,0.5]];portConstraint=eastwest;" parent="iAbm7mLu2YSf8Fx5eU8r-104" vertex="1">
          <mxGeometry y="240" width="240" height="30" as="geometry" />
        </mxCell>
        <mxCell id="HZYmMuGVgNWtQE-nrAp_-15" style="shape=partialRectangle;html=1;whiteSpace=wrap;connectable=0;fillColor=none;top=0;left=0;bottom=0;right=0;overflow=hidden;pointerEvents=1;" parent="HZYmMuGVgNWtQE-nrAp_-14" vertex="1">
          <mxGeometry width="53" height="30" as="geometry">
            <mxRectangle width="53" height="30" as="alternateBounds" />
          </mxGeometry>
        </mxCell>
        <mxCell id="HZYmMuGVgNWtQE-nrAp_-16" value="&lt;span style=&quot;&quot;&gt;processing(enum)&lt;/span&gt;" style="shape=partialRectangle;html=1;whiteSpace=wrap;connectable=0;fillColor=none;top=0;left=0;bottom=0;right=0;align=left;spacingLeft=6;overflow=hidden;pointerEvents=1;" parent="HZYmMuGVgNWtQE-nrAp_-14" vertex="1">
          <mxGeometry x="53" width="187" height="30" as="geometry">
            <mxRectangle width="187" height="30" as="alternateBounds" />
          </mxGeometry>
        </mxCell>
        <mxCell id="HZYmMuGVgNWtQE-nrAp_-17" style="shape=partialRectangle;html=1;whiteSpace=wrap;collapsible=0;dropTarget=0;pointerEvents=1;fillColor=none;top=0;left=0;bottom=0;right=0;points=[[0,0.5],[1,0.5]];portConstraint=eastwest;" parent="iAbm7mLu2YSf8Fx5eU8r-104" vertex="1">
          <mxGeometry y="270" width="240" height="30" as="geometry" />
        </mxCell>
        <mxCell id="HZYmMuGVgNWtQE-nrAp_-18" style="shape=partialRectangle;html=1;whiteSpace=wrap;connectable=0;fillColor=none;top=0;left=0;bottom=0;right=0;overflow=hidden;pointerEvents=1;" parent="HZYmMuGVgNWtQE-nrAp_-17" vertex="1">
          <mxGeometry width="53" height="30" as="geometry">
            <mxRectangle width="53" height="30" as="alternateBounds" />
          </mxGeometry>
        </mxCell>
        <mxCell id="HZYmMuGVgNWtQE-nrAp_-19" value="region(enum)" style="shape=partialRectangle;html=1;whiteSpace=wrap;connectable=0;fillColor=none;top=0;left=0;bottom=0;right=0;align=left;spacingLeft=6;overflow=hidden;pointerEvents=1;" parent="HZYmMuGVgNWtQE-nrAp_-17" vertex="1">
          <mxGeometry x="53" width="187" height="30" as="geometry">
            <mxRectangle width="187" height="30" as="alternateBounds" />
          </mxGeometry>
        </mxCell>
        <mxCell id="OUsCKUFhpICIOKy8SKIW-72" style="shape=partialRectangle;html=1;whiteSpace=wrap;collapsible=0;dropTarget=0;pointerEvents=1;fillColor=none;top=0;left=0;bottom=0;right=0;points=[[0,0.5],[1,0.5]];portConstraint=eastwest;" parent="iAbm7mLu2YSf8Fx5eU8r-104" vertex="1">
          <mxGeometry y="300" width="240" height="30" as="geometry" />
        </mxCell>
        <mxCell id="OUsCKUFhpICIOKy8SKIW-73" style="shape=partialRectangle;html=1;whiteSpace=wrap;connectable=0;fillColor=none;top=0;left=0;bottom=0;right=0;overflow=hidden;pointerEvents=1;" parent="OUsCKUFhpICIOKy8SKIW-72" vertex="1">
          <mxGeometry width="53" height="30" as="geometry">
            <mxRectangle width="53" height="30" as="alternateBounds" />
          </mxGeometry>
        </mxCell>
        <mxCell id="OUsCKUFhpICIOKy8SKIW-74" value="amazon_impression_link" style="shape=partialRectangle;html=1;whiteSpace=wrap;connectable=0;fillColor=none;top=0;left=0;bottom=0;right=0;align=left;spacingLeft=6;overflow=hidden;pointerEvents=1;" parent="OUsCKUFhpICIOKy8SKIW-72" vertex="1">
          <mxGeometry x="53" width="187" height="30" as="geometry">
            <mxRectangle width="187" height="30" as="alternateBounds" />
          </mxGeometry>
        </mxCell>
        <mxCell id="OUsCKUFhpICIOKy8SKIW-75" style="shape=partialRectangle;html=1;whiteSpace=wrap;collapsible=0;dropTarget=0;pointerEvents=1;fillColor=none;top=0;left=0;bottom=0;right=0;points=[[0,0.5],[1,0.5]];portConstraint=eastwest;" parent="iAbm7mLu2YSf8Fx5eU8r-104" vertex="1">
          <mxGeometry y="330" width="240" height="30" as="geometry" />
        </mxCell>
        <mxCell id="OUsCKUFhpICIOKy8SKIW-76" style="shape=partialRectangle;html=1;whiteSpace=wrap;connectable=0;fillColor=none;top=0;left=0;bottom=0;right=0;overflow=hidden;pointerEvents=1;" parent="OUsCKUFhpICIOKy8SKIW-75" vertex="1">
          <mxGeometry width="53" height="30" as="geometry">
            <mxRectangle width="53" height="30" as="alternateBounds" />
          </mxGeometry>
        </mxCell>
        <mxCell id="OUsCKUFhpICIOKy8SKIW-77" value="amazon_img_link" style="shape=partialRectangle;html=1;whiteSpace=wrap;connectable=0;fillColor=none;top=0;left=0;bottom=0;right=0;align=left;spacingLeft=6;overflow=hidden;pointerEvents=1;" parent="OUsCKUFhpICIOKy8SKIW-75" vertex="1">
          <mxGeometry x="53" width="187" height="30" as="geometry">
            <mxRectangle width="187" height="30" as="alternateBounds" />
          </mxGeometry>
        </mxCell>
        <mxCell id="iAbm7mLu2YSf8Fx5eU8r-126" style="shape=partialRectangle;html=1;whiteSpace=wrap;collapsible=0;dropTarget=0;pointerEvents=1;fillColor=none;top=0;left=0;bottom=0;right=0;points=[[0,0.5],[1,0.5]];portConstraint=eastwest;" parent="iAbm7mLu2YSf8Fx5eU8r-104" vertex="1">
          <mxGeometry y="360" width="240" height="30" as="geometry" />
        </mxCell>
        <mxCell id="iAbm7mLu2YSf8Fx5eU8r-127" style="shape=partialRectangle;html=1;whiteSpace=wrap;connectable=0;fillColor=none;top=0;left=0;bottom=0;right=0;overflow=hidden;pointerEvents=1;" parent="iAbm7mLu2YSf8Fx5eU8r-126" vertex="1">
          <mxGeometry width="53" height="30" as="geometry">
            <mxRectangle width="53" height="30" as="alternateBounds" />
          </mxGeometry>
        </mxCell>
        <mxCell id="iAbm7mLu2YSf8Fx5eU8r-128" value="amazon_link" style="shape=partialRectangle;html=1;whiteSpace=wrap;connectable=0;fillColor=none;top=0;left=0;bottom=0;right=0;align=left;spacingLeft=6;overflow=hidden;pointerEvents=1;" parent="iAbm7mLu2YSf8Fx5eU8r-126" vertex="1">
          <mxGeometry x="53" width="187" height="30" as="geometry">
            <mxRectangle width="187" height="30" as="alternateBounds" />
          </mxGeometry>
        </mxCell>
        <mxCell id="N8TpfTawvCsR-sJTv87n-7" style="shape=partialRectangle;html=1;whiteSpace=wrap;collapsible=0;dropTarget=0;pointerEvents=1;fillColor=none;top=0;left=0;bottom=0;right=0;points=[[0,0.5],[1,0.5]];portConstraint=eastwest;" parent="iAbm7mLu2YSf8Fx5eU8r-104" vertex="1">
          <mxGeometry y="390" width="240" height="30" as="geometry" />
        </mxCell>
        <mxCell id="N8TpfTawvCsR-sJTv87n-8" style="shape=partialRectangle;html=1;whiteSpace=wrap;connectable=0;fillColor=none;top=0;left=0;bottom=0;right=0;overflow=hidden;pointerEvents=1;" parent="N8TpfTawvCsR-sJTv87n-7" vertex="1">
          <mxGeometry width="53" height="30" as="geometry">
            <mxRectangle width="53" height="30" as="alternateBounds" />
          </mxGeometry>
        </mxCell>
        <mxCell id="N8TpfTawvCsR-sJTv87n-9" value="drink_way_id" style="shape=partialRectangle;html=1;whiteSpace=wrap;connectable=0;fillColor=none;top=0;left=0;bottom=0;right=0;align=left;spacingLeft=6;overflow=hidden;pointerEvents=1;" parent="N8TpfTawvCsR-sJTv87n-7" vertex="1">
          <mxGeometry x="53" width="187" height="30" as="geometry">
            <mxRectangle width="187" height="30" as="alternateBounds" />
          </mxGeometry>
        </mxCell>
        <mxCell id="N8TpfTawvCsR-sJTv87n-10" style="shape=partialRectangle;html=1;whiteSpace=wrap;collapsible=0;dropTarget=0;pointerEvents=1;fillColor=none;top=0;left=0;bottom=0;right=0;points=[[0,0.5],[1,0.5]];portConstraint=eastwest;" parent="iAbm7mLu2YSf8Fx5eU8r-104" vertex="1">
          <mxGeometry y="420" width="240" height="30" as="geometry" />
        </mxCell>
        <mxCell id="N8TpfTawvCsR-sJTv87n-11" style="shape=partialRectangle;html=1;whiteSpace=wrap;connectable=0;fillColor=none;top=0;left=0;bottom=0;right=0;overflow=hidden;pointerEvents=1;" parent="N8TpfTawvCsR-sJTv87n-10" vertex="1">
          <mxGeometry width="53" height="30" as="geometry">
            <mxRectangle width="53" height="30" as="alternateBounds" />
          </mxGeometry>
        </mxCell>
        <mxCell id="N8TpfTawvCsR-sJTv87n-12" value="distillery_id" style="shape=partialRectangle;html=1;whiteSpace=wrap;connectable=0;fillColor=none;top=0;left=0;bottom=0;right=0;align=left;spacingLeft=6;overflow=hidden;pointerEvents=1;" parent="N8TpfTawvCsR-sJTv87n-10" vertex="1">
          <mxGeometry x="53" width="187" height="30" as="geometry">
            <mxRectangle width="187" height="30" as="alternateBounds" />
          </mxGeometry>
        </mxCell>
        <mxCell id="N8TpfTawvCsR-sJTv87n-13" style="shape=partialRectangle;html=1;whiteSpace=wrap;collapsible=0;dropTarget=0;pointerEvents=1;fillColor=none;top=0;left=0;bottom=0;right=0;points=[[0,0.5],[1,0.5]];portConstraint=eastwest;" parent="iAbm7mLu2YSf8Fx5eU8r-104" vertex="1">
          <mxGeometry y="450" width="240" height="30" as="geometry" />
        </mxCell>
        <mxCell id="N8TpfTawvCsR-sJTv87n-14" style="shape=partialRectangle;html=1;whiteSpace=wrap;connectable=0;fillColor=none;top=0;left=0;bottom=0;right=0;overflow=hidden;pointerEvents=1;" parent="N8TpfTawvCsR-sJTv87n-13" vertex="1">
          <mxGeometry width="53" height="30" as="geometry">
            <mxRectangle width="53" height="30" as="alternateBounds" />
          </mxGeometry>
        </mxCell>
        <mxCell id="N8TpfTawvCsR-sJTv87n-15" value="snack_id" style="shape=partialRectangle;html=1;whiteSpace=wrap;connectable=0;fillColor=none;top=0;left=0;bottom=0;right=0;align=left;spacingLeft=6;overflow=hidden;pointerEvents=1;" parent="N8TpfTawvCsR-sJTv87n-13" vertex="1">
          <mxGeometry x="53" width="187" height="30" as="geometry">
            <mxRectangle width="187" height="30" as="alternateBounds" />
          </mxGeometry>
        </mxCell>
        <mxCell id="iAbm7mLu2YSf8Fx5eU8r-132" value="drink_ways" style="shape=table;startSize=30;container=1;collapsible=0;childLayout=tableLayout;fixedRows=1;rowLines=0;fontStyle=1;align=center;pointerEvents=1;fillColor=#d5e8d4;strokeColor=#82b366;" parent="WIyWlLk6GJQsqaUBKTNV-1" vertex="1">
          <mxGeometry x="-330" y="480" width="180" height="210" as="geometry" />
        </mxCell>
        <mxCell id="iAbm7mLu2YSf8Fx5eU8r-133" value="" style="shape=partialRectangle;html=1;whiteSpace=wrap;collapsible=0;dropTarget=0;pointerEvents=1;fillColor=none;top=0;left=0;bottom=1;right=0;points=[[0,0.5],[1,0.5]];portConstraint=eastwest;" parent="iAbm7mLu2YSf8Fx5eU8r-132" vertex="1">
          <mxGeometry y="30" width="180" height="30" as="geometry" />
        </mxCell>
        <mxCell id="iAbm7mLu2YSf8Fx5eU8r-134" value="PK" style="shape=partialRectangle;html=1;whiteSpace=wrap;connectable=0;fillColor=none;top=0;left=0;bottom=0;right=0;overflow=hidden;pointerEvents=1;" parent="iAbm7mLu2YSf8Fx5eU8r-133" vertex="1">
          <mxGeometry width="40" height="30" as="geometry">
            <mxRectangle width="40" height="30" as="alternateBounds" />
          </mxGeometry>
        </mxCell>
        <mxCell id="iAbm7mLu2YSf8Fx5eU8r-135" value="id" style="shape=partialRectangle;html=1;whiteSpace=wrap;connectable=0;fillColor=none;top=0;left=0;bottom=0;right=0;align=left;spacingLeft=6;overflow=hidden;pointerEvents=1;" parent="iAbm7mLu2YSf8Fx5eU8r-133" vertex="1">
          <mxGeometry x="40" width="140" height="30" as="geometry">
            <mxRectangle width="140" height="30" as="alternateBounds" />
          </mxGeometry>
        </mxCell>
        <mxCell id="iAbm7mLu2YSf8Fx5eU8r-136" value="" style="shape=partialRectangle;html=1;whiteSpace=wrap;collapsible=0;dropTarget=0;pointerEvents=1;fillColor=none;top=0;left=0;bottom=0;right=0;points=[[0,0.5],[1,0.5]];portConstraint=eastwest;" parent="iAbm7mLu2YSf8Fx5eU8r-132" vertex="1">
          <mxGeometry y="60" width="180" height="30" as="geometry" />
        </mxCell>
        <mxCell id="iAbm7mLu2YSf8Fx5eU8r-137" value="" style="shape=partialRectangle;html=1;whiteSpace=wrap;connectable=0;fillColor=none;top=0;left=0;bottom=0;right=0;overflow=hidden;pointerEvents=1;" parent="iAbm7mLu2YSf8Fx5eU8r-136" vertex="1">
          <mxGeometry width="40" height="30" as="geometry">
            <mxRectangle width="40" height="30" as="alternateBounds" />
          </mxGeometry>
        </mxCell>
        <mxCell id="iAbm7mLu2YSf8Fx5eU8r-138" value="name" style="shape=partialRectangle;html=1;whiteSpace=wrap;connectable=0;fillColor=none;top=0;left=0;bottom=0;right=0;align=left;spacingLeft=6;overflow=hidden;pointerEvents=1;" parent="iAbm7mLu2YSf8Fx5eU8r-136" vertex="1">
          <mxGeometry x="40" width="140" height="30" as="geometry">
            <mxRectangle width="140" height="30" as="alternateBounds" />
          </mxGeometry>
        </mxCell>
        <mxCell id="N8TpfTawvCsR-sJTv87n-0" style="shape=partialRectangle;html=1;whiteSpace=wrap;collapsible=0;dropTarget=0;pointerEvents=1;fillColor=none;top=0;left=0;bottom=0;right=0;points=[[0,0.5],[1,0.5]];portConstraint=eastwest;" parent="iAbm7mLu2YSf8Fx5eU8r-132" vertex="1">
          <mxGeometry y="90" width="180" height="30" as="geometry" />
        </mxCell>
        <mxCell id="N8TpfTawvCsR-sJTv87n-1" style="shape=partialRectangle;html=1;whiteSpace=wrap;connectable=0;fillColor=none;top=0;left=0;bottom=0;right=0;overflow=hidden;pointerEvents=1;" parent="N8TpfTawvCsR-sJTv87n-0" vertex="1">
          <mxGeometry width="40" height="30" as="geometry">
            <mxRectangle width="40" height="30" as="alternateBounds" />
          </mxGeometry>
        </mxCell>
        <mxCell id="N8TpfTawvCsR-sJTv87n-2" value="english_name" style="shape=partialRectangle;html=1;whiteSpace=wrap;connectable=0;fillColor=none;top=0;left=0;bottom=0;right=0;align=left;spacingLeft=6;overflow=hidden;pointerEvents=1;" parent="N8TpfTawvCsR-sJTv87n-0" vertex="1">
          <mxGeometry x="40" width="140" height="30" as="geometry">
            <mxRectangle width="140" height="30" as="alternateBounds" />
          </mxGeometry>
        </mxCell>
        <mxCell id="iAbm7mLu2YSf8Fx5eU8r-139" value="" style="shape=partialRectangle;html=1;whiteSpace=wrap;collapsible=0;dropTarget=0;pointerEvents=1;fillColor=none;top=0;left=0;bottom=0;right=0;points=[[0,0.5],[1,0.5]];portConstraint=eastwest;" parent="iAbm7mLu2YSf8Fx5eU8r-132" vertex="1">
          <mxGeometry y="120" width="180" height="30" as="geometry" />
        </mxCell>
        <mxCell id="iAbm7mLu2YSf8Fx5eU8r-140" value="" style="shape=partialRectangle;html=1;whiteSpace=wrap;connectable=0;fillColor=none;top=0;left=0;bottom=0;right=0;overflow=hidden;pointerEvents=1;" parent="iAbm7mLu2YSf8Fx5eU8r-139" vertex="1">
          <mxGeometry width="40" height="30" as="geometry">
            <mxRectangle width="40" height="30" as="alternateBounds" />
          </mxGeometry>
        </mxCell>
        <mxCell id="iAbm7mLu2YSf8Fx5eU8r-141" value="explanation" style="shape=partialRectangle;html=1;whiteSpace=wrap;connectable=0;fillColor=none;top=0;left=0;bottom=0;right=0;align=left;spacingLeft=6;overflow=hidden;pointerEvents=1;" parent="iAbm7mLu2YSf8Fx5eU8r-139" vertex="1">
          <mxGeometry x="40" width="140" height="30" as="geometry">
            <mxRectangle width="140" height="30" as="alternateBounds" />
          </mxGeometry>
        </mxCell>
        <mxCell id="0" style="shape=partialRectangle;html=1;whiteSpace=wrap;collapsible=0;dropTarget=0;pointerEvents=1;fillColor=none;top=0;left=0;bottom=0;right=0;points=[[0,0.5],[1,0.5]];portConstraint=eastwest;" parent="iAbm7mLu2YSf8Fx5eU8r-132" vertex="1">
          <mxGeometry y="150" width="180" height="30" as="geometry" />
        </mxCell>
        <mxCell id="1" style="shape=partialRectangle;html=1;whiteSpace=wrap;connectable=0;fillColor=none;top=0;left=0;bottom=0;right=0;overflow=hidden;pointerEvents=1;" parent="0" vertex="1">
          <mxGeometry width="40" height="30" as="geometry">
            <mxRectangle width="40" height="30" as="alternateBounds" />
          </mxGeometry>
        </mxCell>
        <mxCell id="2" value="how_to_make_url" style="shape=partialRectangle;html=1;whiteSpace=wrap;connectable=0;fillColor=none;top=0;left=0;bottom=0;right=0;align=left;spacingLeft=6;overflow=hidden;pointerEvents=1;" parent="0" vertex="1">
          <mxGeometry x="40" width="140" height="30" as="geometry">
            <mxRectangle width="140" height="30" as="alternateBounds" />
          </mxGeometry>
        </mxCell>
        <mxCell id="iAbm7mLu2YSf8Fx5eU8r-217" style="shape=partialRectangle;html=1;whiteSpace=wrap;collapsible=0;dropTarget=0;pointerEvents=1;fillColor=none;top=0;left=0;bottom=0;right=0;points=[[0,0.5],[1,0.5]];portConstraint=eastwest;" parent="iAbm7mLu2YSf8Fx5eU8r-132" vertex="1">
          <mxGeometry y="180" width="180" height="30" as="geometry" />
        </mxCell>
        <mxCell id="iAbm7mLu2YSf8Fx5eU8r-218" style="shape=partialRectangle;html=1;whiteSpace=wrap;connectable=0;fillColor=none;top=0;left=0;bottom=0;right=0;overflow=hidden;pointerEvents=1;" parent="iAbm7mLu2YSf8Fx5eU8r-217" vertex="1">
          <mxGeometry width="40" height="30" as="geometry">
            <mxRectangle width="40" height="30" as="alternateBounds" />
          </mxGeometry>
        </mxCell>
        <mxCell id="iAbm7mLu2YSf8Fx5eU8r-219" value="image" style="shape=partialRectangle;html=1;whiteSpace=wrap;connectable=0;fillColor=none;top=0;left=0;bottom=0;right=0;align=left;spacingLeft=6;overflow=hidden;pointerEvents=1;" parent="iAbm7mLu2YSf8Fx5eU8r-217" vertex="1">
          <mxGeometry x="40" width="140" height="30" as="geometry">
            <mxRectangle width="140" height="30" as="alternateBounds" />
          </mxGeometry>
        </mxCell>
        <mxCell id="iAbm7mLu2YSf8Fx5eU8r-161" value="distilleries" style="shape=table;startSize=30;container=1;collapsible=0;childLayout=tableLayout;fixedRows=1;rowLines=0;fontStyle=1;align=center;pointerEvents=1;fillColor=#d5e8d4;strokeColor=#82b366;" parent="WIyWlLk6GJQsqaUBKTNV-1" vertex="1">
          <mxGeometry x="-120" y="480" width="180" height="180" as="geometry" />
        </mxCell>
        <mxCell id="iAbm7mLu2YSf8Fx5eU8r-162" value="" style="shape=partialRectangle;html=1;whiteSpace=wrap;collapsible=0;dropTarget=0;pointerEvents=1;fillColor=none;top=0;left=0;bottom=1;right=0;points=[[0,0.5],[1,0.5]];portConstraint=eastwest;" parent="iAbm7mLu2YSf8Fx5eU8r-161" vertex="1">
          <mxGeometry y="30" width="180" height="30" as="geometry" />
        </mxCell>
        <mxCell id="iAbm7mLu2YSf8Fx5eU8r-163" value="PK" style="shape=partialRectangle;html=1;whiteSpace=wrap;connectable=0;fillColor=none;top=0;left=0;bottom=0;right=0;overflow=hidden;pointerEvents=1;" parent="iAbm7mLu2YSf8Fx5eU8r-162" vertex="1">
          <mxGeometry width="40" height="30" as="geometry">
            <mxRectangle width="40" height="30" as="alternateBounds" />
          </mxGeometry>
        </mxCell>
        <mxCell id="iAbm7mLu2YSf8Fx5eU8r-164" value="id" style="shape=partialRectangle;html=1;whiteSpace=wrap;connectable=0;fillColor=none;top=0;left=0;bottom=0;right=0;align=left;spacingLeft=6;overflow=hidden;pointerEvents=1;" parent="iAbm7mLu2YSf8Fx5eU8r-162" vertex="1">
          <mxGeometry x="40" width="140" height="30" as="geometry">
            <mxRectangle width="140" height="30" as="alternateBounds" />
          </mxGeometry>
        </mxCell>
        <mxCell id="iAbm7mLu2YSf8Fx5eU8r-165" value="" style="shape=partialRectangle;html=1;whiteSpace=wrap;collapsible=0;dropTarget=0;pointerEvents=1;fillColor=none;top=0;left=0;bottom=0;right=0;points=[[0,0.5],[1,0.5]];portConstraint=eastwest;" parent="iAbm7mLu2YSf8Fx5eU8r-161" vertex="1">
          <mxGeometry y="60" width="180" height="30" as="geometry" />
        </mxCell>
        <mxCell id="iAbm7mLu2YSf8Fx5eU8r-166" value="" style="shape=partialRectangle;html=1;whiteSpace=wrap;connectable=0;fillColor=none;top=0;left=0;bottom=0;right=0;overflow=hidden;pointerEvents=1;" parent="iAbm7mLu2YSf8Fx5eU8r-165" vertex="1">
          <mxGeometry width="40" height="30" as="geometry">
            <mxRectangle width="40" height="30" as="alternateBounds" />
          </mxGeometry>
        </mxCell>
        <mxCell id="iAbm7mLu2YSf8Fx5eU8r-167" value="name" style="shape=partialRectangle;html=1;whiteSpace=wrap;connectable=0;fillColor=none;top=0;left=0;bottom=0;right=0;align=left;spacingLeft=6;overflow=hidden;pointerEvents=1;" parent="iAbm7mLu2YSf8Fx5eU8r-165" vertex="1">
          <mxGeometry x="40" width="140" height="30" as="geometry">
            <mxRectangle width="140" height="30" as="alternateBounds" />
          </mxGeometry>
        </mxCell>
        <mxCell id="iAbm7mLu2YSf8Fx5eU8r-168" value="" style="shape=partialRectangle;html=1;whiteSpace=wrap;collapsible=0;dropTarget=0;pointerEvents=1;fillColor=none;top=0;left=0;bottom=0;right=0;points=[[0,0.5],[1,0.5]];portConstraint=eastwest;" parent="iAbm7mLu2YSf8Fx5eU8r-161" vertex="1">
          <mxGeometry y="90" width="180" height="30" as="geometry" />
        </mxCell>
        <mxCell id="iAbm7mLu2YSf8Fx5eU8r-169" value="" style="shape=partialRectangle;html=1;whiteSpace=wrap;connectable=0;fillColor=none;top=0;left=0;bottom=0;right=0;overflow=hidden;pointerEvents=1;" parent="iAbm7mLu2YSf8Fx5eU8r-168" vertex="1">
          <mxGeometry width="40" height="30" as="geometry">
            <mxRectangle width="40" height="30" as="alternateBounds" />
          </mxGeometry>
        </mxCell>
        <mxCell id="iAbm7mLu2YSf8Fx5eU8r-170" value="description" style="shape=partialRectangle;html=1;whiteSpace=wrap;connectable=0;fillColor=none;top=0;left=0;bottom=0;right=0;align=left;spacingLeft=6;overflow=hidden;pointerEvents=1;" parent="iAbm7mLu2YSf8Fx5eU8r-168" vertex="1">
          <mxGeometry x="40" width="140" height="30" as="geometry">
            <mxRectangle width="140" height="30" as="alternateBounds" />
          </mxGeometry>
        </mxCell>
        <mxCell id="iAbm7mLu2YSf8Fx5eU8r-224" style="shape=partialRectangle;html=1;whiteSpace=wrap;collapsible=0;dropTarget=0;pointerEvents=1;fillColor=none;top=0;left=0;bottom=0;right=0;points=[[0,0.5],[1,0.5]];portConstraint=eastwest;" parent="iAbm7mLu2YSf8Fx5eU8r-161" vertex="1">
          <mxGeometry y="120" width="180" height="30" as="geometry" />
        </mxCell>
        <mxCell id="iAbm7mLu2YSf8Fx5eU8r-225" style="shape=partialRectangle;html=1;whiteSpace=wrap;connectable=0;fillColor=none;top=0;left=0;bottom=0;right=0;overflow=hidden;pointerEvents=1;" parent="iAbm7mLu2YSf8Fx5eU8r-224" vertex="1">
          <mxGeometry width="40" height="30" as="geometry">
            <mxRectangle width="40" height="30" as="alternateBounds" />
          </mxGeometry>
        </mxCell>
        <mxCell id="iAbm7mLu2YSf8Fx5eU8r-226" value="image" style="shape=partialRectangle;html=1;whiteSpace=wrap;connectable=0;fillColor=none;top=0;left=0;bottom=0;right=0;align=left;spacingLeft=6;overflow=hidden;pointerEvents=1;" parent="iAbm7mLu2YSf8Fx5eU8r-224" vertex="1">
          <mxGeometry x="40" width="140" height="30" as="geometry">
            <mxRectangle width="140" height="30" as="alternateBounds" />
          </mxGeometry>
        </mxCell>
        <mxCell id="iAbm7mLu2YSf8Fx5eU8r-171" style="shape=partialRectangle;html=1;whiteSpace=wrap;collapsible=0;dropTarget=0;pointerEvents=1;fillColor=none;top=0;left=0;bottom=0;right=0;points=[[0,0.5],[1,0.5]];portConstraint=eastwest;" parent="iAbm7mLu2YSf8Fx5eU8r-161" vertex="1">
          <mxGeometry y="150" width="180" height="30" as="geometry" />
        </mxCell>
        <mxCell id="iAbm7mLu2YSf8Fx5eU8r-172" style="shape=partialRectangle;html=1;whiteSpace=wrap;connectable=0;fillColor=none;top=0;left=0;bottom=0;right=0;overflow=hidden;pointerEvents=1;" parent="iAbm7mLu2YSf8Fx5eU8r-171" vertex="1">
          <mxGeometry width="40" height="30" as="geometry">
            <mxRectangle width="40" height="30" as="alternateBounds" />
          </mxGeometry>
        </mxCell>
        <mxCell id="iAbm7mLu2YSf8Fx5eU8r-173" value="country" style="shape=partialRectangle;html=1;whiteSpace=wrap;connectable=0;fillColor=none;top=0;left=0;bottom=0;right=0;align=left;spacingLeft=6;overflow=hidden;pointerEvents=1;" parent="iAbm7mLu2YSf8Fx5eU8r-171" vertex="1">
          <mxGeometry x="40" width="140" height="30" as="geometry">
            <mxRectangle width="140" height="30" as="alternateBounds" />
          </mxGeometry>
        </mxCell>
        <mxCell id="iAbm7mLu2YSf8Fx5eU8r-189" value="snacks" style="shape=table;startSize=30;container=1;collapsible=0;childLayout=tableLayout;fixedRows=1;rowLines=0;fontStyle=1;align=center;pointerEvents=1;fillColor=#d5e8d4;strokeColor=#82b366;" parent="WIyWlLk6GJQsqaUBKTNV-1" vertex="1">
          <mxGeometry x="80" y="480" width="180" height="180" as="geometry" />
        </mxCell>
        <mxCell id="iAbm7mLu2YSf8Fx5eU8r-190" value="" style="shape=partialRectangle;html=1;whiteSpace=wrap;collapsible=0;dropTarget=0;pointerEvents=1;fillColor=none;top=0;left=0;bottom=1;right=0;points=[[0,0.5],[1,0.5]];portConstraint=eastwest;" parent="iAbm7mLu2YSf8Fx5eU8r-189" vertex="1">
          <mxGeometry y="30" width="180" height="30" as="geometry" />
        </mxCell>
        <mxCell id="iAbm7mLu2YSf8Fx5eU8r-191" value="PK" style="shape=partialRectangle;html=1;whiteSpace=wrap;connectable=0;fillColor=none;top=0;left=0;bottom=0;right=0;overflow=hidden;pointerEvents=1;" parent="iAbm7mLu2YSf8Fx5eU8r-190" vertex="1">
          <mxGeometry width="40" height="30" as="geometry">
            <mxRectangle width="40" height="30" as="alternateBounds" />
          </mxGeometry>
        </mxCell>
        <mxCell id="iAbm7mLu2YSf8Fx5eU8r-192" value="id" style="shape=partialRectangle;html=1;whiteSpace=wrap;connectable=0;fillColor=none;top=0;left=0;bottom=0;right=0;align=left;spacingLeft=6;overflow=hidden;pointerEvents=1;" parent="iAbm7mLu2YSf8Fx5eU8r-190" vertex="1">
          <mxGeometry x="40" width="140" height="30" as="geometry">
            <mxRectangle width="140" height="30" as="alternateBounds" />
          </mxGeometry>
        </mxCell>
        <mxCell id="iAbm7mLu2YSf8Fx5eU8r-193" value="" style="shape=partialRectangle;html=1;whiteSpace=wrap;collapsible=0;dropTarget=0;pointerEvents=1;fillColor=none;top=0;left=0;bottom=0;right=0;points=[[0,0.5],[1,0.5]];portConstraint=eastwest;" parent="iAbm7mLu2YSf8Fx5eU8r-189" vertex="1">
          <mxGeometry y="60" width="180" height="30" as="geometry" />
        </mxCell>
        <mxCell id="iAbm7mLu2YSf8Fx5eU8r-194" value="" style="shape=partialRectangle;html=1;whiteSpace=wrap;connectable=0;fillColor=none;top=0;left=0;bottom=0;right=0;overflow=hidden;pointerEvents=1;" parent="iAbm7mLu2YSf8Fx5eU8r-193" vertex="1">
          <mxGeometry width="40" height="30" as="geometry">
            <mxRectangle width="40" height="30" as="alternateBounds" />
          </mxGeometry>
        </mxCell>
        <mxCell id="iAbm7mLu2YSf8Fx5eU8r-195" value="name" style="shape=partialRectangle;html=1;whiteSpace=wrap;connectable=0;fillColor=none;top=0;left=0;bottom=0;right=0;align=left;spacingLeft=6;overflow=hidden;pointerEvents=1;" parent="iAbm7mLu2YSf8Fx5eU8r-193" vertex="1">
          <mxGeometry x="40" width="140" height="30" as="geometry">
            <mxRectangle width="140" height="30" as="alternateBounds" />
          </mxGeometry>
        </mxCell>
        <mxCell id="uvvgluz0jEJPcfL3x2Qi-5" style="shape=partialRectangle;html=1;whiteSpace=wrap;collapsible=0;dropTarget=0;pointerEvents=1;fillColor=none;top=0;left=0;bottom=0;right=0;points=[[0,0.5],[1,0.5]];portConstraint=eastwest;" parent="iAbm7mLu2YSf8Fx5eU8r-189" vertex="1">
          <mxGeometry y="90" width="180" height="30" as="geometry" />
        </mxCell>
        <mxCell id="uvvgluz0jEJPcfL3x2Qi-6" style="shape=partialRectangle;html=1;whiteSpace=wrap;connectable=0;fillColor=none;top=0;left=0;bottom=0;right=0;overflow=hidden;pointerEvents=1;" parent="uvvgluz0jEJPcfL3x2Qi-5" vertex="1">
          <mxGeometry width="40" height="30" as="geometry">
            <mxRectangle width="40" height="30" as="alternateBounds" />
          </mxGeometry>
        </mxCell>
        <mxCell id="uvvgluz0jEJPcfL3x2Qi-7" value="english_name" style="shape=partialRectangle;html=1;whiteSpace=wrap;connectable=0;fillColor=none;top=0;left=0;bottom=0;right=0;align=left;spacingLeft=6;overflow=hidden;pointerEvents=1;" parent="uvvgluz0jEJPcfL3x2Qi-5" vertex="1">
          <mxGeometry x="40" width="140" height="30" as="geometry">
            <mxRectangle width="140" height="30" as="alternateBounds" />
          </mxGeometry>
        </mxCell>
        <mxCell id="iAbm7mLu2YSf8Fx5eU8r-196" value="" style="shape=partialRectangle;html=1;whiteSpace=wrap;collapsible=0;dropTarget=0;pointerEvents=1;fillColor=none;top=0;left=0;bottom=0;right=0;points=[[0,0.5],[1,0.5]];portConstraint=eastwest;" parent="iAbm7mLu2YSf8Fx5eU8r-189" vertex="1">
          <mxGeometry y="120" width="180" height="30" as="geometry" />
        </mxCell>
        <mxCell id="iAbm7mLu2YSf8Fx5eU8r-197" value="" style="shape=partialRectangle;html=1;whiteSpace=wrap;connectable=0;fillColor=none;top=0;left=0;bottom=0;right=0;overflow=hidden;pointerEvents=1;" parent="iAbm7mLu2YSf8Fx5eU8r-196" vertex="1">
          <mxGeometry width="40" height="30" as="geometry">
            <mxRectangle width="40" height="30" as="alternateBounds" />
          </mxGeometry>
        </mxCell>
        <mxCell id="iAbm7mLu2YSf8Fx5eU8r-198" value="description" style="shape=partialRectangle;html=1;whiteSpace=wrap;connectable=0;fillColor=none;top=0;left=0;bottom=0;right=0;align=left;spacingLeft=6;overflow=hidden;pointerEvents=1;" parent="iAbm7mLu2YSf8Fx5eU8r-196" vertex="1">
          <mxGeometry x="40" width="140" height="30" as="geometry">
            <mxRectangle width="140" height="30" as="alternateBounds" />
          </mxGeometry>
        </mxCell>
        <mxCell id="iAbm7mLu2YSf8Fx5eU8r-199" style="shape=partialRectangle;html=1;whiteSpace=wrap;collapsible=0;dropTarget=0;pointerEvents=1;fillColor=none;top=0;left=0;bottom=0;right=0;points=[[0,0.5],[1,0.5]];portConstraint=eastwest;" parent="iAbm7mLu2YSf8Fx5eU8r-189" vertex="1">
          <mxGeometry y="150" width="180" height="30" as="geometry" />
        </mxCell>
        <mxCell id="iAbm7mLu2YSf8Fx5eU8r-200" style="shape=partialRectangle;html=1;whiteSpace=wrap;connectable=0;fillColor=none;top=0;left=0;bottom=0;right=0;overflow=hidden;pointerEvents=1;" parent="iAbm7mLu2YSf8Fx5eU8r-199" vertex="1">
          <mxGeometry width="40" height="30" as="geometry">
            <mxRectangle width="40" height="30" as="alternateBounds" />
          </mxGeometry>
        </mxCell>
        <mxCell id="iAbm7mLu2YSf8Fx5eU8r-201" value="image" style="shape=partialRectangle;html=1;whiteSpace=wrap;connectable=0;fillColor=none;top=0;left=0;bottom=0;right=0;align=left;spacingLeft=6;overflow=hidden;pointerEvents=1;" parent="iAbm7mLu2YSf8Fx5eU8r-199" vertex="1">
          <mxGeometry x="40" width="140" height="30" as="geometry">
            <mxRectangle width="140" height="30" as="alternateBounds" />
          </mxGeometry>
        </mxCell>
        <mxCell id="iAbm7mLu2YSf8Fx5eU8r-242" value="whiskeies_with_flavors" style="shape=table;startSize=30;container=1;collapsible=0;childLayout=tableLayout;fixedRows=1;rowLines=0;fontStyle=1;align=center;pointerEvents=1;labelBackgroundColor=default;fillColor=#d5e8d4;strokeColor=#82b366;" parent="WIyWlLk6GJQsqaUBKTNV-1" vertex="1">
          <mxGeometry x="310" y="290" width="180" height="120" as="geometry" />
        </mxCell>
        <mxCell id="iAbm7mLu2YSf8Fx5eU8r-243" value="" style="shape=partialRectangle;html=1;whiteSpace=wrap;collapsible=0;dropTarget=0;pointerEvents=1;fillColor=none;top=0;left=0;bottom=1;right=0;points=[[0,0.5],[1,0.5]];portConstraint=eastwest;labelBackgroundColor=default;" parent="iAbm7mLu2YSf8Fx5eU8r-242" vertex="1">
          <mxGeometry y="30" width="180" height="30" as="geometry" />
        </mxCell>
        <mxCell id="iAbm7mLu2YSf8Fx5eU8r-244" value="PK" style="shape=partialRectangle;html=1;whiteSpace=wrap;connectable=0;fillColor=none;top=0;left=0;bottom=0;right=0;overflow=hidden;pointerEvents=1;labelBackgroundColor=default;" parent="iAbm7mLu2YSf8Fx5eU8r-243" vertex="1">
          <mxGeometry width="40" height="30" as="geometry">
            <mxRectangle width="40" height="30" as="alternateBounds" />
          </mxGeometry>
        </mxCell>
        <mxCell id="iAbm7mLu2YSf8Fx5eU8r-245" value="id" style="shape=partialRectangle;html=1;whiteSpace=wrap;connectable=0;fillColor=none;top=0;left=0;bottom=0;right=0;align=left;spacingLeft=6;overflow=hidden;pointerEvents=1;labelBackgroundColor=default;" parent="iAbm7mLu2YSf8Fx5eU8r-243" vertex="1">
          <mxGeometry x="40" width="140" height="30" as="geometry">
            <mxRectangle width="140" height="30" as="alternateBounds" />
          </mxGeometry>
        </mxCell>
        <mxCell id="iAbm7mLu2YSf8Fx5eU8r-246" value="" style="shape=partialRectangle;html=1;whiteSpace=wrap;collapsible=0;dropTarget=0;pointerEvents=1;fillColor=none;top=0;left=0;bottom=0;right=0;points=[[0,0.5],[1,0.5]];portConstraint=eastwest;labelBackgroundColor=default;" parent="iAbm7mLu2YSf8Fx5eU8r-242" vertex="1">
          <mxGeometry y="60" width="180" height="30" as="geometry" />
        </mxCell>
        <mxCell id="iAbm7mLu2YSf8Fx5eU8r-247" value="FK" style="shape=partialRectangle;html=1;whiteSpace=wrap;connectable=0;fillColor=none;top=0;left=0;bottom=0;right=0;overflow=hidden;pointerEvents=1;labelBackgroundColor=default;" parent="iAbm7mLu2YSf8Fx5eU8r-246" vertex="1">
          <mxGeometry width="40" height="30" as="geometry">
            <mxRectangle width="40" height="30" as="alternateBounds" />
          </mxGeometry>
        </mxCell>
        <mxCell id="iAbm7mLu2YSf8Fx5eU8r-248" value="whiskey_id" style="shape=partialRectangle;html=1;whiteSpace=wrap;connectable=0;fillColor=none;top=0;left=0;bottom=0;right=0;align=left;spacingLeft=6;overflow=hidden;pointerEvents=1;labelBackgroundColor=default;" parent="iAbm7mLu2YSf8Fx5eU8r-246" vertex="1">
          <mxGeometry x="40" width="140" height="30" as="geometry">
            <mxRectangle width="140" height="30" as="alternateBounds" />
          </mxGeometry>
        </mxCell>
        <mxCell id="iAbm7mLu2YSf8Fx5eU8r-249" value="" style="shape=partialRectangle;html=1;whiteSpace=wrap;collapsible=0;dropTarget=0;pointerEvents=1;fillColor=none;top=0;left=0;bottom=0;right=0;points=[[0,0.5],[1,0.5]];portConstraint=eastwest;labelBackgroundColor=default;" parent="iAbm7mLu2YSf8Fx5eU8r-242" vertex="1">
          <mxGeometry y="90" width="180" height="30" as="geometry" />
        </mxCell>
        <mxCell id="iAbm7mLu2YSf8Fx5eU8r-250" value="FK" style="shape=partialRectangle;html=1;whiteSpace=wrap;connectable=0;fillColor=none;top=0;left=0;bottom=0;right=0;overflow=hidden;pointerEvents=1;labelBackgroundColor=default;" parent="iAbm7mLu2YSf8Fx5eU8r-249" vertex="1">
          <mxGeometry width="40" height="30" as="geometry">
            <mxRectangle width="40" height="30" as="alternateBounds" />
          </mxGeometry>
        </mxCell>
        <mxCell id="iAbm7mLu2YSf8Fx5eU8r-251" value="flavor_id" style="shape=partialRectangle;html=1;whiteSpace=wrap;connectable=0;fillColor=none;top=0;left=0;bottom=0;right=0;align=left;spacingLeft=6;overflow=hidden;pointerEvents=1;labelBackgroundColor=default;" parent="iAbm7mLu2YSf8Fx5eU8r-249" vertex="1">
          <mxGeometry x="40" width="140" height="30" as="geometry">
            <mxRectangle width="140" height="30" as="alternateBounds" />
          </mxGeometry>
        </mxCell>
        <mxCell id="iAbm7mLu2YSf8Fx5eU8r-265" value="tasting_notes" style="shape=table;startSize=30;container=1;collapsible=0;childLayout=tableLayout;fixedRows=1;rowLines=0;fontStyle=1;align=center;pointerEvents=1;fillColor=#d5e8d4;strokeColor=#82b366;" parent="WIyWlLk6GJQsqaUBKTNV-1" vertex="1">
          <mxGeometry x="-680" y="480" width="240" height="210" as="geometry" />
        </mxCell>
        <mxCell id="iAbm7mLu2YSf8Fx5eU8r-266" value="" style="shape=partialRectangle;html=1;whiteSpace=wrap;collapsible=0;dropTarget=0;pointerEvents=1;fillColor=none;top=0;left=0;bottom=1;right=0;points=[[0,0.5],[1,0.5]];portConstraint=eastwest;" parent="iAbm7mLu2YSf8Fx5eU8r-265" vertex="1">
          <mxGeometry y="30" width="240" height="30" as="geometry" />
        </mxCell>
        <mxCell id="iAbm7mLu2YSf8Fx5eU8r-267" value="PK" style="shape=partialRectangle;html=1;whiteSpace=wrap;connectable=0;fillColor=none;top=0;left=0;bottom=0;right=0;overflow=hidden;pointerEvents=1;" parent="iAbm7mLu2YSf8Fx5eU8r-266" vertex="1">
          <mxGeometry width="54" height="30" as="geometry">
            <mxRectangle width="54" height="30" as="alternateBounds" />
          </mxGeometry>
        </mxCell>
        <mxCell id="iAbm7mLu2YSf8Fx5eU8r-268" value="id" style="shape=partialRectangle;html=1;whiteSpace=wrap;connectable=0;fillColor=none;top=0;left=0;bottom=0;right=0;align=left;spacingLeft=6;overflow=hidden;pointerEvents=1;" parent="iAbm7mLu2YSf8Fx5eU8r-266" vertex="1">
          <mxGeometry x="54" width="186" height="30" as="geometry">
            <mxRectangle width="186" height="30" as="alternateBounds" />
          </mxGeometry>
        </mxCell>
        <mxCell id="iAbm7mLu2YSf8Fx5eU8r-269" value="" style="shape=partialRectangle;html=1;whiteSpace=wrap;collapsible=0;dropTarget=0;pointerEvents=1;fillColor=none;top=0;left=0;bottom=0;right=0;points=[[0,0.5],[1,0.5]];portConstraint=eastwest;" parent="iAbm7mLu2YSf8Fx5eU8r-265" vertex="1">
          <mxGeometry y="60" width="240" height="30" as="geometry" />
        </mxCell>
        <mxCell id="iAbm7mLu2YSf8Fx5eU8r-270" value="" style="shape=partialRectangle;html=1;whiteSpace=wrap;connectable=0;fillColor=none;top=0;left=0;bottom=0;right=0;overflow=hidden;pointerEvents=1;" parent="iAbm7mLu2YSf8Fx5eU8r-269" vertex="1">
          <mxGeometry width="54" height="30" as="geometry">
            <mxRectangle width="54" height="30" as="alternateBounds" />
          </mxGeometry>
        </mxCell>
        <mxCell id="iAbm7mLu2YSf8Fx5eU8r-271" value="comment" style="shape=partialRectangle;html=1;whiteSpace=wrap;connectable=0;fillColor=none;top=0;left=0;bottom=0;right=0;align=left;spacingLeft=6;overflow=hidden;pointerEvents=1;" parent="iAbm7mLu2YSf8Fx5eU8r-269" vertex="1">
          <mxGeometry x="54" width="186" height="30" as="geometry">
            <mxRectangle width="186" height="30" as="alternateBounds" />
          </mxGeometry>
        </mxCell>
        <mxCell id="iAbm7mLu2YSf8Fx5eU8r-272" value="" style="shape=partialRectangle;html=1;whiteSpace=wrap;collapsible=0;dropTarget=0;pointerEvents=1;fillColor=none;top=0;left=0;bottom=0;right=0;points=[[0,0.5],[1,0.5]];portConstraint=eastwest;" parent="iAbm7mLu2YSf8Fx5eU8r-265" vertex="1">
          <mxGeometry y="90" width="240" height="30" as="geometry" />
        </mxCell>
        <mxCell id="iAbm7mLu2YSf8Fx5eU8r-273" value="FK" style="shape=partialRectangle;html=1;whiteSpace=wrap;connectable=0;fillColor=none;top=0;left=0;bottom=0;right=0;overflow=hidden;pointerEvents=1;" parent="iAbm7mLu2YSf8Fx5eU8r-272" vertex="1">
          <mxGeometry width="54" height="30" as="geometry">
            <mxRectangle width="54" height="30" as="alternateBounds" />
          </mxGeometry>
        </mxCell>
        <mxCell id="iAbm7mLu2YSf8Fx5eU8r-274" value="user_id" style="shape=partialRectangle;html=1;whiteSpace=wrap;connectable=0;fillColor=none;top=0;left=0;bottom=0;right=0;align=left;spacingLeft=6;overflow=hidden;pointerEvents=1;" parent="iAbm7mLu2YSf8Fx5eU8r-272" vertex="1">
          <mxGeometry x="54" width="186" height="30" as="geometry">
            <mxRectangle width="186" height="30" as="alternateBounds" />
          </mxGeometry>
        </mxCell>
        <mxCell id="iAbm7mLu2YSf8Fx5eU8r-275" style="shape=partialRectangle;html=1;whiteSpace=wrap;collapsible=0;dropTarget=0;pointerEvents=1;fillColor=none;top=0;left=0;bottom=0;right=0;points=[[0,0.5],[1,0.5]];portConstraint=eastwest;" parent="iAbm7mLu2YSf8Fx5eU8r-265" vertex="1">
          <mxGeometry y="120" width="240" height="30" as="geometry" />
        </mxCell>
        <mxCell id="iAbm7mLu2YSf8Fx5eU8r-276" value="FK" style="shape=partialRectangle;html=1;whiteSpace=wrap;connectable=0;fillColor=none;top=0;left=0;bottom=0;right=0;overflow=hidden;pointerEvents=1;" parent="iAbm7mLu2YSf8Fx5eU8r-275" vertex="1">
          <mxGeometry width="54" height="30" as="geometry">
            <mxRectangle width="54" height="30" as="alternateBounds" />
          </mxGeometry>
        </mxCell>
        <mxCell id="iAbm7mLu2YSf8Fx5eU8r-277" value="whiskey_id" style="shape=partialRectangle;html=1;whiteSpace=wrap;connectable=0;fillColor=none;top=0;left=0;bottom=0;right=0;align=left;spacingLeft=6;overflow=hidden;pointerEvents=1;" parent="iAbm7mLu2YSf8Fx5eU8r-275" vertex="1">
          <mxGeometry x="54" width="186" height="30" as="geometry">
            <mxRectangle width="186" height="30" as="alternateBounds" />
          </mxGeometry>
        </mxCell>
        <mxCell id="iAbm7mLu2YSf8Fx5eU8r-281" style="shape=partialRectangle;html=1;whiteSpace=wrap;collapsible=0;dropTarget=0;pointerEvents=1;fillColor=none;top=0;left=0;bottom=0;right=0;points=[[0,0.5],[1,0.5]];portConstraint=eastwest;" parent="iAbm7mLu2YSf8Fx5eU8r-265" vertex="1">
          <mxGeometry y="150" width="240" height="30" as="geometry" />
        </mxCell>
        <mxCell id="iAbm7mLu2YSf8Fx5eU8r-282" value="FK" style="shape=partialRectangle;html=1;whiteSpace=wrap;connectable=0;fillColor=none;top=0;left=0;bottom=0;right=0;overflow=hidden;pointerEvents=1;" parent="iAbm7mLu2YSf8Fx5eU8r-281" vertex="1">
          <mxGeometry width="54" height="30" as="geometry">
            <mxRectangle width="54" height="30" as="alternateBounds" />
          </mxGeometry>
        </mxCell>
        <mxCell id="iAbm7mLu2YSf8Fx5eU8r-283" value="drink_way_id" style="shape=partialRectangle;html=1;whiteSpace=wrap;connectable=0;fillColor=none;top=0;left=0;bottom=0;right=0;align=left;spacingLeft=6;overflow=hidden;pointerEvents=1;" parent="iAbm7mLu2YSf8Fx5eU8r-281" vertex="1">
          <mxGeometry x="54" width="186" height="30" as="geometry">
            <mxRectangle width="186" height="30" as="alternateBounds" />
          </mxGeometry>
        </mxCell>
        <mxCell id="iAbm7mLu2YSf8Fx5eU8r-299" style="shape=partialRectangle;html=1;whiteSpace=wrap;collapsible=0;dropTarget=0;pointerEvents=1;fillColor=none;top=0;left=0;bottom=0;right=0;points=[[0,0.5],[1,0.5]];portConstraint=eastwest;" parent="iAbm7mLu2YSf8Fx5eU8r-265" vertex="1">
          <mxGeometry y="180" width="240" height="30" as="geometry" />
        </mxCell>
        <mxCell id="iAbm7mLu2YSf8Fx5eU8r-300" value="FK" style="shape=partialRectangle;html=1;whiteSpace=wrap;connectable=0;fillColor=none;top=0;left=0;bottom=0;right=0;overflow=hidden;pointerEvents=1;" parent="iAbm7mLu2YSf8Fx5eU8r-299" vertex="1">
          <mxGeometry width="54" height="30" as="geometry">
            <mxRectangle width="54" height="30" as="alternateBounds" />
          </mxGeometry>
        </mxCell>
        <mxCell id="iAbm7mLu2YSf8Fx5eU8r-301" value="snack_id" style="shape=partialRectangle;html=1;whiteSpace=wrap;connectable=0;fillColor=none;top=0;left=0;bottom=0;right=0;align=left;spacingLeft=6;overflow=hidden;pointerEvents=1;" parent="iAbm7mLu2YSf8Fx5eU8r-299" vertex="1">
          <mxGeometry x="54" width="186" height="30" as="geometry">
            <mxRectangle width="186" height="30" as="alternateBounds" />
          </mxGeometry>
        </mxCell>
        <mxCell id="iAbm7mLu2YSf8Fx5eU8r-305" value="bookmarks" style="shape=table;startSize=30;container=1;collapsible=0;childLayout=tableLayout;fixedRows=1;rowLines=0;fontStyle=1;align=center;pointerEvents=1;labelBackgroundColor=default;fillColor=#d5e8d4;strokeColor=#82b366;" parent="WIyWlLk6GJQsqaUBKTNV-1" vertex="1">
          <mxGeometry x="-380" y="-50" width="180" height="120" as="geometry" />
        </mxCell>
        <mxCell id="iAbm7mLu2YSf8Fx5eU8r-306" value="" style="shape=partialRectangle;html=1;whiteSpace=wrap;collapsible=0;dropTarget=0;pointerEvents=1;fillColor=none;top=0;left=0;bottom=1;right=0;points=[[0,0.5],[1,0.5]];portConstraint=eastwest;labelBackgroundColor=default;" parent="iAbm7mLu2YSf8Fx5eU8r-305" vertex="1">
          <mxGeometry y="30" width="180" height="30" as="geometry" />
        </mxCell>
        <mxCell id="iAbm7mLu2YSf8Fx5eU8r-307" value="PK" style="shape=partialRectangle;html=1;whiteSpace=wrap;connectable=0;fillColor=none;top=0;left=0;bottom=0;right=0;overflow=hidden;pointerEvents=1;labelBackgroundColor=default;" parent="iAbm7mLu2YSf8Fx5eU8r-306" vertex="1">
          <mxGeometry width="40" height="30" as="geometry">
            <mxRectangle width="40" height="30" as="alternateBounds" />
          </mxGeometry>
        </mxCell>
        <mxCell id="iAbm7mLu2YSf8Fx5eU8r-308" value="id" style="shape=partialRectangle;html=1;whiteSpace=wrap;connectable=0;fillColor=none;top=0;left=0;bottom=0;right=0;align=left;spacingLeft=6;overflow=hidden;pointerEvents=1;labelBackgroundColor=default;" parent="iAbm7mLu2YSf8Fx5eU8r-306" vertex="1">
          <mxGeometry x="40" width="140" height="30" as="geometry">
            <mxRectangle width="140" height="30" as="alternateBounds" />
          </mxGeometry>
        </mxCell>
        <mxCell id="iAbm7mLu2YSf8Fx5eU8r-309" value="" style="shape=partialRectangle;html=1;whiteSpace=wrap;collapsible=0;dropTarget=0;pointerEvents=1;fillColor=none;top=0;left=0;bottom=0;right=0;points=[[0,0.5],[1,0.5]];portConstraint=eastwest;labelBackgroundColor=default;" parent="iAbm7mLu2YSf8Fx5eU8r-305" vertex="1">
          <mxGeometry y="60" width="180" height="30" as="geometry" />
        </mxCell>
        <mxCell id="iAbm7mLu2YSf8Fx5eU8r-310" value="FK" style="shape=partialRectangle;html=1;whiteSpace=wrap;connectable=0;fillColor=none;top=0;left=0;bottom=0;right=0;overflow=hidden;pointerEvents=1;labelBackgroundColor=default;" parent="iAbm7mLu2YSf8Fx5eU8r-309" vertex="1">
          <mxGeometry width="40" height="30" as="geometry">
            <mxRectangle width="40" height="30" as="alternateBounds" />
          </mxGeometry>
        </mxCell>
        <mxCell id="iAbm7mLu2YSf8Fx5eU8r-311" value="user_id" style="shape=partialRectangle;html=1;whiteSpace=wrap;connectable=0;fillColor=none;top=0;left=0;bottom=0;right=0;align=left;spacingLeft=6;overflow=hidden;pointerEvents=1;labelBackgroundColor=default;" parent="iAbm7mLu2YSf8Fx5eU8r-309" vertex="1">
          <mxGeometry x="40" width="140" height="30" as="geometry">
            <mxRectangle width="140" height="30" as="alternateBounds" />
          </mxGeometry>
        </mxCell>
        <mxCell id="iAbm7mLu2YSf8Fx5eU8r-312" value="" style="shape=partialRectangle;html=1;whiteSpace=wrap;collapsible=0;dropTarget=0;pointerEvents=1;fillColor=none;top=0;left=0;bottom=0;right=0;points=[[0,0.5],[1,0.5]];portConstraint=eastwest;labelBackgroundColor=default;" parent="iAbm7mLu2YSf8Fx5eU8r-305" vertex="1">
          <mxGeometry y="90" width="180" height="30" as="geometry" />
        </mxCell>
        <mxCell id="iAbm7mLu2YSf8Fx5eU8r-313" value="FK" style="shape=partialRectangle;html=1;whiteSpace=wrap;connectable=0;fillColor=none;top=0;left=0;bottom=0;right=0;overflow=hidden;pointerEvents=1;labelBackgroundColor=default;" parent="iAbm7mLu2YSf8Fx5eU8r-312" vertex="1">
          <mxGeometry width="40" height="30" as="geometry">
            <mxRectangle width="40" height="30" as="alternateBounds" />
          </mxGeometry>
        </mxCell>
        <mxCell id="iAbm7mLu2YSf8Fx5eU8r-314" value="whiskey_id" style="shape=partialRectangle;html=1;whiteSpace=wrap;connectable=0;fillColor=none;top=0;left=0;bottom=0;right=0;align=left;spacingLeft=6;overflow=hidden;pointerEvents=1;labelBackgroundColor=default;" parent="iAbm7mLu2YSf8Fx5eU8r-312" vertex="1">
          <mxGeometry x="40" width="140" height="30" as="geometry">
            <mxRectangle width="140" height="30" as="alternateBounds" />
          </mxGeometry>
        </mxCell>
        <mxCell id="iAbm7mLu2YSf8Fx5eU8r-316" value="" style="edgeStyle=orthogonalEdgeStyle;fontSize=12;html=1;endArrow=ERoneToMany;startArrow=ERmandOne;rounded=0;fontColor=#7A7A7A;entryX=0;entryY=0.5;entryDx=0;entryDy=0;exitX=0;exitY=0.5;exitDx=0;exitDy=0;" parent="WIyWlLk6GJQsqaUBKTNV-1" source="iAbm7mLu2YSf8Fx5eU8r-5" target="iAbm7mLu2YSf8Fx5eU8r-272" edge="1">
          <mxGeometry width="100" height="100" relative="1" as="geometry">
            <mxPoint x="-760" y="-10" as="sourcePoint" />
            <mxPoint x="-510" y="300" as="targetPoint" />
            <Array as="points">
              <mxPoint x="-740" y="-5" />
              <mxPoint x="-740" y="585" />
            </Array>
          </mxGeometry>
        </mxCell>
        <mxCell id="iAbm7mLu2YSf8Fx5eU8r-317" value="" style="edgeStyle=orthogonalEdgeStyle;fontSize=12;html=1;endArrow=ERoneToMany;startArrow=ERmandOne;rounded=0;fontColor=#7A7A7A;entryX=1;entryY=0.5;entryDx=0;entryDy=0;" parent="WIyWlLk6GJQsqaUBKTNV-1" target="iAbm7mLu2YSf8Fx5eU8r-275" edge="1">
          <mxGeometry width="100" height="100" relative="1" as="geometry">
            <mxPoint x="110" y="-10" as="sourcePoint" />
            <mxPoint x="-390" y="620" as="targetPoint" />
            <Array as="points">
              <mxPoint x="110" y="-10" />
              <mxPoint x="130" y="-10" />
              <mxPoint x="130" y="450" />
              <mxPoint x="-390" y="450" />
              <mxPoint x="-390" y="615" />
            </Array>
          </mxGeometry>
        </mxCell>
        <mxCell id="iAbm7mLu2YSf8Fx5eU8r-320" value="" style="edgeStyle=orthogonalEdgeStyle;fontSize=12;html=1;endArrow=ERoneToMany;startArrow=ERmandOne;rounded=0;fontColor=#7A7A7A;entryX=1;entryY=0.5;entryDx=0;entryDy=0;exitX=0;exitY=0.5;exitDx=0;exitDy=0;" parent="WIyWlLk6GJQsqaUBKTNV-1" source="iAbm7mLu2YSf8Fx5eU8r-133" target="iAbm7mLu2YSf8Fx5eU8r-281" edge="1">
          <mxGeometry width="100" height="100" relative="1" as="geometry">
            <mxPoint x="-540" y="750" as="sourcePoint" />
            <mxPoint x="-440" y="650" as="targetPoint" />
            <Array as="points">
              <mxPoint x="-370" y="525" />
              <mxPoint x="-370" y="645" />
            </Array>
          </mxGeometry>
        </mxCell>
        <mxCell id="iAbm7mLu2YSf8Fx5eU8r-330" value="" style="edgeStyle=orthogonalEdgeStyle;fontSize=12;html=1;endArrow=ERoneToMany;startArrow=ERmandOne;rounded=0;fontColor=#7A7A7A;entryX=1;entryY=0.5;entryDx=0;entryDy=0;" parent="WIyWlLk6GJQsqaUBKTNV-1" target="iAbm7mLu2YSf8Fx5eU8r-299" edge="1">
          <mxGeometry width="100" height="100" relative="1" as="geometry">
            <mxPoint x="260" y="530" as="sourcePoint" />
            <mxPoint x="-430" y="685" as="targetPoint" />
            <Array as="points">
              <mxPoint x="280" y="530" />
              <mxPoint x="280" y="705" />
              <mxPoint x="-360" y="705" />
              <mxPoint x="-360" y="675" />
            </Array>
          </mxGeometry>
        </mxCell>
        <mxCell id="iAbm7mLu2YSf8Fx5eU8r-331" value="" style="edgeStyle=orthogonalEdgeStyle;fontSize=12;html=1;endArrow=ERoneToMany;startArrow=ERmandOne;rounded=0;fontColor=#7A7A7A;exitX=1;exitY=0.5;exitDx=0;exitDy=0;entryX=1;entryY=0.5;entryDx=0;entryDy=0;" parent="WIyWlLk6GJQsqaUBKTNV-1" source="iAbm7mLu2YSf8Fx5eU8r-77" target="HZYmMuGVgNWtQE-nrAp_-9" edge="1">
          <mxGeometry width="100" height="100" relative="1" as="geometry">
            <mxPoint x="-319.9999999999998" y="535" as="sourcePoint" />
            <mxPoint x="170" y="850" as="targetPoint" />
            <Array as="points">
              <mxPoint x="590" y="525" />
              <mxPoint x="590" y="825" />
            </Array>
          </mxGeometry>
        </mxCell>
        <mxCell id="N8TpfTawvCsR-sJTv87n-5" value="" style="edgeStyle=orthogonalEdgeStyle;fontSize=12;html=1;endArrow=ERoneToMany;startArrow=ERmandOne;rounded=0;entryX=0;entryY=0.5;entryDx=0;entryDy=0;" parent="WIyWlLk6GJQsqaUBKTNV-1" target="iAbm7mLu2YSf8Fx5eU8r-246" edge="1">
          <mxGeometry width="100" height="100" relative="1" as="geometry">
            <mxPoint x="110" y="-10" as="sourcePoint" />
            <mxPoint x="220.00000000000023" y="170" as="targetPoint" />
            <Array as="points">
              <mxPoint x="290" y="-10" />
              <mxPoint x="290" y="365" />
            </Array>
          </mxGeometry>
        </mxCell>
        <mxCell id="N8TpfTawvCsR-sJTv87n-6" value="" style="edgeStyle=orthogonalEdgeStyle;fontSize=12;html=1;endArrow=ERoneToMany;startArrow=ERmandOne;rounded=0;exitX=1;exitY=0.5;exitDx=0;exitDy=0;" parent="WIyWlLk6GJQsqaUBKTNV-1" source="iAbm7mLu2YSf8Fx5eU8r-77" edge="1">
          <mxGeometry width="100" height="100" relative="1" as="geometry">
            <mxPoint x="120.96000000000004" y="85.78999999999996" as="sourcePoint" />
            <mxPoint x="490" y="395" as="targetPoint" />
            <Array as="points">
              <mxPoint x="520" y="525" />
              <mxPoint x="520" y="395" />
            </Array>
          </mxGeometry>
        </mxCell>
        <mxCell id="N8TpfTawvCsR-sJTv87n-16" value="" style="edgeStyle=orthogonalEdgeStyle;fontSize=12;html=1;endArrow=ERoneToMany;startArrow=ERmandOne;rounded=0;exitX=1;exitY=0.5;exitDx=0;exitDy=0;entryX=1;entryY=0.5;entryDx=0;entryDy=0;" parent="WIyWlLk6GJQsqaUBKTNV-1" source="iAbm7mLu2YSf8Fx5eU8r-133" target="N8TpfTawvCsR-sJTv87n-7" edge="1">
          <mxGeometry width="100" height="100" relative="1" as="geometry">
            <mxPoint x="10" y="420" as="sourcePoint" />
            <mxPoint x="110" y="320" as="targetPoint" />
            <Array as="points">
              <mxPoint x="-130" y="525" />
              <mxPoint x="-130" y="460" />
              <mxPoint x="140" y="460" />
              <mxPoint x="140" y="355" />
            </Array>
          </mxGeometry>
        </mxCell>
        <mxCell id="N8TpfTawvCsR-sJTv87n-17" value="" style="edgeStyle=orthogonalEdgeStyle;fontSize=12;html=1;endArrow=ERoneToMany;startArrow=ERmandOne;rounded=0;exitX=1;exitY=0.5;exitDx=0;exitDy=0;entryX=1;entryY=0.5;entryDx=0;entryDy=0;" parent="WIyWlLk6GJQsqaUBKTNV-1" source="iAbm7mLu2YSf8Fx5eU8r-162" target="N8TpfTawvCsR-sJTv87n-10" edge="1">
          <mxGeometry width="100" height="100" relative="1" as="geometry">
            <mxPoint x="10" y="460" as="sourcePoint" />
            <mxPoint x="110" y="360" as="targetPoint" />
            <Array as="points">
              <mxPoint x="70" y="525" />
              <mxPoint x="70" y="470" />
              <mxPoint x="150" y="470" />
              <mxPoint x="150" y="385" />
            </Array>
          </mxGeometry>
        </mxCell>
        <mxCell id="N8TpfTawvCsR-sJTv87n-18" value="" style="edgeStyle=orthogonalEdgeStyle;fontSize=12;html=1;endArrow=ERoneToMany;startArrow=ERmandOne;rounded=0;" parent="WIyWlLk6GJQsqaUBKTNV-1" target="N8TpfTawvCsR-sJTv87n-13" edge="1">
          <mxGeometry width="100" height="100" relative="1" as="geometry">
            <mxPoint x="260" y="520" as="sourcePoint" />
            <mxPoint x="130" y="340" as="targetPoint" />
            <Array as="points">
              <mxPoint x="280" y="520" />
              <mxPoint x="280" y="415" />
            </Array>
          </mxGeometry>
        </mxCell>
        <mxCell id="N8TpfTawvCsR-sJTv87n-4" value="" style="edgeStyle=orthogonalEdgeStyle;fontSize=12;html=1;endArrow=ERoneToMany;startArrow=ERmandOne;rounded=0;" parent="WIyWlLk6GJQsqaUBKTNV-1" edge="1">
          <mxGeometry width="100" height="100" relative="1" as="geometry">
            <mxPoint x="-130" y="-8" as="sourcePoint" />
            <mxPoint x="-200" y="57" as="targetPoint" />
            <Array as="points">
              <mxPoint x="-170" y="-8" />
              <mxPoint x="-170" y="57" />
              <mxPoint x="-200" y="57" />
            </Array>
          </mxGeometry>
        </mxCell>
        <mxCell id="N8TpfTawvCsR-sJTv87n-3" value="" style="edgeStyle=orthogonalEdgeStyle;fontSize=12;html=1;endArrow=ERoneToMany;startArrow=ERmandOne;rounded=0;entryX=0;entryY=0.703;entryDx=0;entryDy=0;exitX=1;exitY=0.5;exitDx=0;exitDy=0;entryPerimeter=0;" parent="WIyWlLk6GJQsqaUBKTNV-1" source="iAbm7mLu2YSf8Fx5eU8r-5" target="iAbm7mLu2YSf8Fx5eU8r-309" edge="1">
          <mxGeometry width="100" height="100" relative="1" as="geometry">
            <mxPoint x="-280" y="20" as="sourcePoint" />
            <mxPoint x="-380" y="120" as="targetPoint" />
            <Array as="points">
              <mxPoint x="-410" y="-5" />
              <mxPoint x="-410" y="31" />
            </Array>
          </mxGeometry>
        </mxCell>
        <mxCell id="OUsCKUFhpICIOKy8SKIW-80" value="&lt;font style=&quot;font-size: 30px;&quot; color=&quot;#ff8000&quot;&gt;&lt;b&gt;未実装&lt;/b&gt;&lt;/font&gt;" style="text;html=1;strokeColor=none;fillColor=none;align=center;verticalAlign=middle;whiteSpace=wrap;rounded=0;" parent="WIyWlLk6GJQsqaUBKTNV-1" vertex="1">
          <mxGeometry x="-85" y="560" width="110" height="31" as="geometry" />
        </mxCell>
        <mxCell id="HZYmMuGVgNWtQE-nrAp_-2" value="tasting_note_flavors" style="shape=table;startSize=30;container=1;collapsible=0;childLayout=tableLayout;fixedRows=1;rowLines=0;fontStyle=1;align=center;pointerEvents=1;labelBackgroundColor=default;fillColor=#d5e8d4;strokeColor=#82b366;" parent="WIyWlLk6GJQsqaUBKTNV-1" vertex="1">
          <mxGeometry x="-120" y="720" width="180" height="120" as="geometry" />
        </mxCell>
        <mxCell id="HZYmMuGVgNWtQE-nrAp_-3" value="" style="shape=partialRectangle;html=1;whiteSpace=wrap;collapsible=0;dropTarget=0;pointerEvents=1;fillColor=none;top=0;left=0;bottom=1;right=0;points=[[0,0.5],[1,0.5]];portConstraint=eastwest;labelBackgroundColor=default;" parent="HZYmMuGVgNWtQE-nrAp_-2" vertex="1">
          <mxGeometry y="30" width="180" height="30" as="geometry" />
        </mxCell>
        <mxCell id="HZYmMuGVgNWtQE-nrAp_-4" value="PK" style="shape=partialRectangle;html=1;whiteSpace=wrap;connectable=0;fillColor=none;top=0;left=0;bottom=0;right=0;overflow=hidden;pointerEvents=1;labelBackgroundColor=default;" parent="HZYmMuGVgNWtQE-nrAp_-3" vertex="1">
          <mxGeometry width="40" height="30" as="geometry">
            <mxRectangle width="40" height="30" as="alternateBounds" />
          </mxGeometry>
        </mxCell>
        <mxCell id="HZYmMuGVgNWtQE-nrAp_-5" value="id" style="shape=partialRectangle;html=1;whiteSpace=wrap;connectable=0;fillColor=none;top=0;left=0;bottom=0;right=0;align=left;spacingLeft=6;overflow=hidden;pointerEvents=1;labelBackgroundColor=default;" parent="HZYmMuGVgNWtQE-nrAp_-3" vertex="1">
          <mxGeometry x="40" width="140" height="30" as="geometry">
            <mxRectangle width="140" height="30" as="alternateBounds" />
          </mxGeometry>
        </mxCell>
        <mxCell id="HZYmMuGVgNWtQE-nrAp_-6" value="" style="shape=partialRectangle;html=1;whiteSpace=wrap;collapsible=0;dropTarget=0;pointerEvents=1;fillColor=none;top=0;left=0;bottom=0;right=0;points=[[0,0.5],[1,0.5]];portConstraint=eastwest;labelBackgroundColor=default;" parent="HZYmMuGVgNWtQE-nrAp_-2" vertex="1">
          <mxGeometry y="60" width="180" height="30" as="geometry" />
        </mxCell>
        <mxCell id="HZYmMuGVgNWtQE-nrAp_-7" value="FK" style="shape=partialRectangle;html=1;whiteSpace=wrap;connectable=0;fillColor=none;top=0;left=0;bottom=0;right=0;overflow=hidden;pointerEvents=1;labelBackgroundColor=default;" parent="HZYmMuGVgNWtQE-nrAp_-6" vertex="1">
          <mxGeometry width="40" height="30" as="geometry">
            <mxRectangle width="40" height="30" as="alternateBounds" />
          </mxGeometry>
        </mxCell>
        <mxCell id="HZYmMuGVgNWtQE-nrAp_-8" value="tasting_note_id" style="shape=partialRectangle;html=1;whiteSpace=wrap;connectable=0;fillColor=none;top=0;left=0;bottom=0;right=0;align=left;spacingLeft=6;overflow=hidden;pointerEvents=1;labelBackgroundColor=default;" parent="HZYmMuGVgNWtQE-nrAp_-6" vertex="1">
          <mxGeometry x="40" width="140" height="30" as="geometry">
            <mxRectangle width="140" height="30" as="alternateBounds" />
          </mxGeometry>
        </mxCell>
        <mxCell id="HZYmMuGVgNWtQE-nrAp_-9" value="" style="shape=partialRectangle;html=1;whiteSpace=wrap;collapsible=0;dropTarget=0;pointerEvents=1;fillColor=none;top=0;left=0;bottom=0;right=0;points=[[0,0.5],[1,0.5]];portConstraint=eastwest;labelBackgroundColor=default;" parent="HZYmMuGVgNWtQE-nrAp_-2" vertex="1">
          <mxGeometry y="90" width="180" height="30" as="geometry" />
        </mxCell>
        <mxCell id="HZYmMuGVgNWtQE-nrAp_-10" value="FK" style="shape=partialRectangle;html=1;whiteSpace=wrap;connectable=0;fillColor=none;top=0;left=0;bottom=0;right=0;overflow=hidden;pointerEvents=1;labelBackgroundColor=default;" parent="HZYmMuGVgNWtQE-nrAp_-9" vertex="1">
          <mxGeometry width="40" height="30" as="geometry">
            <mxRectangle width="40" height="30" as="alternateBounds" />
          </mxGeometry>
        </mxCell>
        <mxCell id="HZYmMuGVgNWtQE-nrAp_-11" value="flavor_id" style="shape=partialRectangle;html=1;whiteSpace=wrap;connectable=0;fillColor=none;top=0;left=0;bottom=0;right=0;align=left;spacingLeft=6;overflow=hidden;pointerEvents=1;labelBackgroundColor=default;" parent="HZYmMuGVgNWtQE-nrAp_-9" vertex="1">
          <mxGeometry x="40" width="140" height="30" as="geometry">
            <mxRectangle width="140" height="30" as="alternateBounds" />
          </mxGeometry>
        </mxCell>
        <mxCell id="HZYmMuGVgNWtQE-nrAp_-12" value="" style="edgeStyle=orthogonalEdgeStyle;fontSize=12;html=1;endArrow=ERoneToMany;startArrow=ERmandOne;rounded=0;fontColor=#7A7A7A;exitX=1;exitY=0.5;exitDx=0;exitDy=0;entryX=0;entryY=0.5;entryDx=0;entryDy=0;" parent="WIyWlLk6GJQsqaUBKTNV-1" source="iAbm7mLu2YSf8Fx5eU8r-266" target="HZYmMuGVgNWtQE-nrAp_-6" edge="1">
          <mxGeometry width="100" height="100" relative="1" as="geometry">
            <mxPoint x="570" y="535" as="sourcePoint" />
            <mxPoint x="-130" y="795" as="targetPoint" />
            <Array as="points">
              <mxPoint x="-400" y="525" />
              <mxPoint x="-400" y="795" />
            </Array>
          </mxGeometry>
        </mxCell>
        <mxCell id="HZYmMuGVgNWtQE-nrAp_-21" value="authentications" style="shape=table;startSize=30;container=1;collapsible=0;childLayout=tableLayout;fixedRows=1;rowLines=0;fontStyle=1;align=center;pointerEvents=1;fillColor=#d5e8d4;strokeColor=#82b366;" parent="WIyWlLk6GJQsqaUBKTNV-1" vertex="1">
          <mxGeometry x="-680" y="160" width="240" height="150" as="geometry" />
        </mxCell>
        <mxCell id="HZYmMuGVgNWtQE-nrAp_-22" value="" style="shape=partialRectangle;html=1;whiteSpace=wrap;collapsible=0;dropTarget=0;pointerEvents=1;fillColor=none;top=0;left=0;bottom=1;right=0;points=[[0,0.5],[1,0.5]];portConstraint=eastwest;" parent="HZYmMuGVgNWtQE-nrAp_-21" vertex="1">
          <mxGeometry y="30" width="240" height="30" as="geometry" />
        </mxCell>
        <mxCell id="HZYmMuGVgNWtQE-nrAp_-23" value="PK" style="shape=partialRectangle;html=1;whiteSpace=wrap;connectable=0;fillColor=none;top=0;left=0;bottom=0;right=0;overflow=hidden;pointerEvents=1;" parent="HZYmMuGVgNWtQE-nrAp_-22" vertex="1">
          <mxGeometry width="54" height="30" as="geometry">
            <mxRectangle width="54" height="30" as="alternateBounds" />
          </mxGeometry>
        </mxCell>
        <mxCell id="HZYmMuGVgNWtQE-nrAp_-24" value="id" style="shape=partialRectangle;html=1;whiteSpace=wrap;connectable=0;fillColor=none;top=0;left=0;bottom=0;right=0;align=left;spacingLeft=6;overflow=hidden;pointerEvents=1;" parent="HZYmMuGVgNWtQE-nrAp_-22" vertex="1">
          <mxGeometry x="54" width="186" height="30" as="geometry">
            <mxRectangle width="186" height="30" as="alternateBounds" />
          </mxGeometry>
        </mxCell>
        <mxCell id="HZYmMuGVgNWtQE-nrAp_-34" value="" style="shape=partialRectangle;html=1;whiteSpace=wrap;collapsible=0;dropTarget=0;pointerEvents=1;fillColor=none;top=0;left=0;bottom=0;right=0;points=[[0,0.5],[1,0.5]];portConstraint=eastwest;" parent="HZYmMuGVgNWtQE-nrAp_-21" vertex="1">
          <mxGeometry y="60" width="240" height="30" as="geometry" />
        </mxCell>
        <mxCell id="HZYmMuGVgNWtQE-nrAp_-35" value="" style="shape=partialRectangle;html=1;whiteSpace=wrap;connectable=0;fillColor=none;top=0;left=0;bottom=0;right=0;overflow=hidden;pointerEvents=1;" parent="HZYmMuGVgNWtQE-nrAp_-34" vertex="1">
          <mxGeometry width="54" height="30" as="geometry">
            <mxRectangle width="54" height="30" as="alternateBounds" />
          </mxGeometry>
        </mxCell>
        <mxCell id="HZYmMuGVgNWtQE-nrAp_-36" value="provider" style="shape=partialRectangle;html=1;whiteSpace=wrap;connectable=0;fillColor=none;top=0;left=0;bottom=0;right=0;align=left;spacingLeft=6;overflow=hidden;pointerEvents=1;" parent="HZYmMuGVgNWtQE-nrAp_-34" vertex="1">
          <mxGeometry x="54" width="186" height="30" as="geometry">
            <mxRectangle width="186" height="30" as="alternateBounds" />
          </mxGeometry>
        </mxCell>
        <mxCell id="HZYmMuGVgNWtQE-nrAp_-25" value="" style="shape=partialRectangle;html=1;whiteSpace=wrap;collapsible=0;dropTarget=0;pointerEvents=1;fillColor=none;top=0;left=0;bottom=0;right=0;points=[[0,0.5],[1,0.5]];portConstraint=eastwest;" parent="HZYmMuGVgNWtQE-nrAp_-21" vertex="1">
          <mxGeometry y="90" width="240" height="30" as="geometry" />
        </mxCell>
        <mxCell id="HZYmMuGVgNWtQE-nrAp_-26" value="" style="shape=partialRectangle;html=1;whiteSpace=wrap;connectable=0;fillColor=none;top=0;left=0;bottom=0;right=0;overflow=hidden;pointerEvents=1;" parent="HZYmMuGVgNWtQE-nrAp_-25" vertex="1">
          <mxGeometry width="54" height="30" as="geometry">
            <mxRectangle width="54" height="30" as="alternateBounds" />
          </mxGeometry>
        </mxCell>
        <mxCell id="HZYmMuGVgNWtQE-nrAp_-27" value="uid" style="shape=partialRectangle;html=1;whiteSpace=wrap;connectable=0;fillColor=none;top=0;left=0;bottom=0;right=0;align=left;spacingLeft=6;overflow=hidden;pointerEvents=1;" parent="HZYmMuGVgNWtQE-nrAp_-25" vertex="1">
          <mxGeometry x="54" width="186" height="30" as="geometry">
            <mxRectangle width="186" height="30" as="alternateBounds" />
          </mxGeometry>
        </mxCell>
        <mxCell id="HZYmMuGVgNWtQE-nrAp_-28" style="shape=partialRectangle;html=1;whiteSpace=wrap;collapsible=0;dropTarget=0;pointerEvents=1;fillColor=none;top=0;left=0;bottom=0;right=0;points=[[0,0.5],[1,0.5]];portConstraint=eastwest;" parent="HZYmMuGVgNWtQE-nrAp_-21" vertex="1">
          <mxGeometry y="120" width="240" height="30" as="geometry" />
        </mxCell>
        <mxCell id="HZYmMuGVgNWtQE-nrAp_-29" value="FK" style="shape=partialRectangle;html=1;whiteSpace=wrap;connectable=0;fillColor=none;top=0;left=0;bottom=0;right=0;overflow=hidden;pointerEvents=1;" parent="HZYmMuGVgNWtQE-nrAp_-28" vertex="1">
          <mxGeometry width="54" height="30" as="geometry">
            <mxRectangle width="54" height="30" as="alternateBounds" />
          </mxGeometry>
        </mxCell>
        <mxCell id="HZYmMuGVgNWtQE-nrAp_-30" value="user_id" style="shape=partialRectangle;html=1;whiteSpace=wrap;connectable=0;fillColor=none;top=0;left=0;bottom=0;right=0;align=left;spacingLeft=6;overflow=hidden;pointerEvents=1;" parent="HZYmMuGVgNWtQE-nrAp_-28" vertex="1">
          <mxGeometry x="54" width="186" height="30" as="geometry">
            <mxRectangle width="186" height="30" as="alternateBounds" />
          </mxGeometry>
        </mxCell>
        <mxCell id="HZYmMuGVgNWtQE-nrAp_-37" value="" style="edgeStyle=orthogonalEdgeStyle;fontSize=12;html=1;endArrow=ERoneToMany;startArrow=ERmandOne;rounded=0;fontColor=#7A7A7A;entryX=0;entryY=0.5;entryDx=0;entryDy=0;exitX=0;exitY=0.5;exitDx=0;exitDy=0;" parent="WIyWlLk6GJQsqaUBKTNV-1" source="iAbm7mLu2YSf8Fx5eU8r-5" target="HZYmMuGVgNWtQE-nrAp_-28" edge="1">
          <mxGeometry width="100" height="100" relative="1" as="geometry">
            <mxPoint x="-670.0000000000002" y="5" as="sourcePoint" />
            <mxPoint x="-670.0000000000002" y="595" as="targetPoint" />
            <Array as="points">
              <mxPoint x="-710" y="-5" />
              <mxPoint x="-710" y="295" />
            </Array>
          </mxGeometry>
        </mxCell>
      </root>
    </mxGraphModel>
  </diagram>
</mxfile>
